<svg width="517" height="30" viewBox="0 0 517 30" fill="none" xmlns="http://www.w3.org/2000/svg">
<rect y="4" width="20" height="20" rx="10" fill="#1F69F8"/>
<path d="M72.9883 12.625C72.9883 11.6875 72.8867 10.9453 72.6836 10.3984C72.4805 9.85156 72.1445 9.4375 71.6758 9.15625C71.207 8.875 70.5898 8.69531 69.8242 8.61719C69.0664 8.53906 68.125 8.5 67 8.5H61.7383C60.7383 8.5 59.8945 8.53125 59.207 8.59375C58.5273 8.64844 57.9648 8.76562 57.5195 8.94531C57.0742 9.125 56.7305 9.38281 56.4883 9.71875C56.2461 10.0547 56.0703 10.5 55.9609 11.0547C55.8516 11.6094 55.7891 12.293 55.7734 13.1055C55.7578 13.9102 55.75 14.875 55.75 16C55.75 17.125 55.7578 18.0938 55.7734 18.9062C55.7969 19.7109 55.8633 20.3906 55.9727 20.9453C56.082 21.5 56.2539 21.9453 56.4883 22.2812C56.7305 22.6172 57.0742 22.875 57.5195 23.0547C57.9648 23.2344 58.5273 23.3555 59.207 23.418C59.8945 23.4727 60.7383 23.5 61.7383 23.5H67C67.875 23.5 68.6289 23.4766 69.2617 23.4297C69.8945 23.3828 70.4336 23.2969 70.8789 23.1719C71.3242 23.0469 71.6836 22.875 71.957 22.6562C72.2305 22.4375 72.4414 22.1641 72.5898 21.8359C72.7461 21.5 72.8516 21.1016 72.9062 20.6406C72.9609 20.1719 72.9883 19.625 72.9883 19H75.2383C75.2383 19.75 75.1914 20.4297 75.0977 21.0391C75.0039 21.6406 74.8359 22.1797 74.5938 22.6562C74.3594 23.125 74.043 23.5312 73.6445 23.875C73.2461 24.2188 72.7422 24.5039 72.1328 24.7305C71.5234 24.9492 70.7969 25.1094 69.9531 25.2109C69.1094 25.3203 68.125 25.375 67 25.375H61.7383C60.3633 25.375 59.2031 25.2891 58.2578 25.1172C57.3203 24.9531 56.5469 24.7031 55.9375 24.3672C55.3281 24.0234 54.8555 23.5938 54.5195 23.0781C54.1914 22.5625 53.9492 21.957 53.793 21.2617C53.6445 20.5664 53.5586 19.7812 53.5352 18.9062C53.5117 18.0312 53.5 17.0625 53.5 16C53.5 14.9375 53.5117 13.9688 53.5352 13.0938C53.5586 12.2188 53.6445 11.4336 53.793 10.7383C53.9492 10.043 54.1914 9.4375 54.5195 8.92188C54.8555 8.40625 55.3281 7.98047 55.9375 7.64453C56.5469 7.30078 57.3203 7.04688 58.2578 6.88281C59.2031 6.71094 60.3633 6.625 61.7383 6.625H67C68.125 6.625 69.1094 6.67969 69.9531 6.78906C70.7969 6.89063 71.5234 7.05078 72.1328 7.26953C72.7422 7.48047 73.2461 7.75 73.6445 8.07812C74.043 8.40625 74.3594 8.79297 74.5938 9.23828C74.8359 9.68359 75.0039 10.1875 75.0977 10.75C75.1914 11.3125 75.2383 11.9375 75.2383 12.625H72.9883ZM91.75 25V17.3828C91.75 16.5703 91.6875 15.8867 91.5625 15.332C91.4375 14.7695 91.1875 14.3164 90.8125 13.9727C90.4375 13.6289 89.9062 13.3828 89.2188 13.2344C88.5312 13.0781 87.625 13 86.5 13C85.2812 13 84.2812 13.0898 83.5 13.2695C82.7266 13.4414 82.1172 13.6875 81.6719 14.0078C81.2266 14.3203 80.918 14.6992 80.7461 15.1445C80.582 15.5898 80.5 16.0859 80.5 16.6328V25H78.25V7H80.5V13.6328C80.6562 13.2656 80.8789 12.9492 81.168 12.6836C81.457 12.418 81.7891 12.1914 82.1641 12.0039C82.5469 11.8164 82.957 11.668 83.3945 11.5586C83.832 11.4414 84.2734 11.3516 84.7188 11.2891C85.1719 11.2266 85.6133 11.1836 86.043 11.1602C86.4805 11.1367 86.8828 11.125 87.25 11.125C88.25 11.125 89.1094 11.1875 89.8281 11.3125C90.5547 11.4297 91.168 11.6094 91.668 11.8516C92.1758 12.0859 92.582 12.3789 92.8867 12.7305C93.1914 13.082 93.4258 13.4922 93.5898 13.9609C93.7617 14.4219 93.875 14.9414 93.9297 15.5195C93.9844 16.0898 94.0117 16.7109 94.0117 17.3828L94 25H91.75ZM104.898 25.2578C103.398 25.2578 102.125 25.1562 101.078 24.9531C100.031 24.7422 99.1797 24.3828 98.5234 23.875C97.8672 23.3672 97.3906 22.6875 97.0938 21.8359C96.7969 20.9844 96.6484 19.9141 96.6484 18.625C96.6484 17.1484 96.7969 15.9297 97.0938 14.9688C97.3906 14 97.8672 13.2305 98.5234 12.6602C99.1797 12.0898 100.031 11.6914 101.078 11.4648C102.125 11.2383 103.398 11.125 104.898 11.125C105.969 11.125 106.895 11.2031 107.676 11.3594C108.465 11.5156 109.137 11.7422 109.691 12.0391C110.254 12.3359 110.707 12.6953 111.051 13.1172C111.402 13.5391 111.676 13.9844 111.871 14.4531C112.074 14.9141 112.211 15.457 112.281 16.082C112.359 16.707 112.398 17.3672 112.398 18.0625L112.211 18.8125H98.8984C98.8984 19.8438 99 20.6914 99.2031 21.3555C99.4062 22.0117 99.7422 22.4922 100.211 22.7969C100.68 23.1016 101.297 23.2969 102.062 23.3828C102.828 23.4609 103.773 23.5 104.898 23.5C105.93 23.5 106.781 23.4727 107.453 23.418C108.133 23.3555 108.672 23.2422 109.07 23.0781C109.469 22.9141 109.746 22.6875 109.902 22.3984C110.066 22.1016 110.148 21.7188 110.148 21.25H112.398C112.398 21.9766 112.27 22.5977 112.012 23.1133C111.762 23.6211 111.344 24.0352 110.758 24.3555C110.172 24.668 109.398 24.8945 108.438 25.0352C107.484 25.1836 106.305 25.2578 104.898 25.2578ZM104.898 13C104.148 13 103.477 13.0156 102.883 13.0469C102.297 13.0781 101.781 13.1484 101.336 13.2578C100.898 13.3594 100.523 13.5117 100.211 13.7148C99.8984 13.9102 99.6445 14.1445 99.4492 14.418C99.2617 14.6836 99.1211 15.0625 99.0273 15.5547C98.9414 16.0391 98.8984 16.625 98.8984 17.3125H110.148C110.148 16.3984 110.051 15.6836 109.855 15.168C109.66 14.6445 109.352 14.2148 108.93 13.8789C108.508 13.543 107.965 13.3125 107.301 13.1875C106.637 13.0625 105.836 13 104.898 13ZM128.523 19C128.523 20.1484 128.43 21.1094 128.242 21.8828C128.055 22.6484 127.738 23.2617 127.293 23.7227C126.855 24.1836 126.277 24.5117 125.559 24.707C124.84 24.9023 123.953 25 122.898 25C121.875 25 121.016 24.9219 120.32 24.7656C119.625 24.6094 119.062 24.3438 118.633 23.9688C118.203 23.5938 117.895 23.0938 117.707 22.4688C117.52 21.8438 117.426 21.0625 117.426 20.125V13.3516H114.648V11.5H117.426V7.80859H119.676V11.5H128.148V13.3516H119.676V20.125C119.676 20.875 119.73 21.4531 119.84 21.8594C119.957 22.2656 120.141 22.5625 120.391 22.75C120.641 22.9375 120.969 23.0469 121.375 23.0781C121.789 23.1094 122.293 23.125 122.887 23.125C123.355 23.125 123.773 23.1172 124.141 23.1016C124.516 23.0859 124.84 23.0391 125.113 22.9609C125.395 22.875 125.633 22.75 125.828 22.5859C126.023 22.4141 126.18 22.1758 126.297 21.8711C126.422 21.5664 126.512 21.1836 126.566 20.7227C126.621 20.2539 126.648 19.6797 126.648 19H128.523ZM138.648 25.2578C137.148 25.2578 135.875 25.1484 134.828 24.9297C133.781 24.7109 132.93 24.3359 132.273 23.8047C131.617 23.2734 131.141 22.5586 130.844 21.6602C130.547 20.7617 130.398 19.6328 130.398 18.2734C130.398 16.8672 130.547 15.7031 130.844 14.7812C131.141 13.8594 131.617 13.1289 132.273 12.5898C132.93 12.0508 133.781 11.6719 134.828 11.4531C135.875 11.2344 137.148 11.125 138.648 11.125C139.711 11.125 140.602 11.1797 141.32 11.2891C142.039 11.3984 142.625 11.5352 143.078 11.6992C143.539 11.8633 143.887 12.043 144.121 12.2383C144.363 12.4258 144.539 12.6016 144.648 12.7656V7H146.898V25H144.648V22.9961C144.648 22.9961 144.461 23.2188 144.086 23.6641C143.758 23.9844 143.395 24.2422 142.996 24.4375C142.598 24.6328 142.039 24.8203 141.32 25C140.602 25.1719 139.711 25.2578 138.648 25.2578ZM138.648 23.5C139.398 23.5 140.066 23.4844 140.652 23.4531C141.238 23.4141 141.754 23.3359 142.199 23.2188C142.645 23.1016 143.02 22.9297 143.324 22.7031C143.637 22.4688 143.891 22.1602 144.086 21.7773C144.281 21.3945 144.422 20.9219 144.508 20.3594C144.602 19.7891 144.648 19.1055 144.648 18.3086C144.648 17.4805 144.602 16.7773 144.508 16.1992C144.422 15.6133 144.281 15.125 144.086 14.7344C143.891 14.3359 143.637 14.0234 143.324 13.7969C143.02 13.5703 142.645 13.3984 142.199 13.2812C141.754 13.1562 141.238 13.0781 140.652 13.0469C140.066 13.0156 139.398 13 138.648 13C137.773 13 137.016 13.0273 136.375 13.082C135.742 13.1367 135.203 13.2344 134.758 13.375C134.312 13.5156 133.949 13.7109 133.668 13.9609C133.395 14.2109 133.18 14.5312 133.023 14.9219C132.875 15.3125 132.773 15.7852 132.719 16.3398C132.672 16.8867 132.648 17.5312 132.648 18.2734C132.648 19.0078 132.672 19.6484 132.719 20.1953C132.773 20.7344 132.875 21.1992 133.023 21.5898C133.18 21.9727 133.395 22.2891 133.668 22.5391C133.949 22.7891 134.312 22.9844 134.758 23.125C135.203 23.2656 135.742 23.3633 136.375 23.418C137.016 23.4727 137.773 23.5 138.648 23.5ZM163.34 23.1484C163.316 23.2422 163.141 23.4766 162.812 23.8516C162.578 24.1328 162.266 24.3828 161.875 24.6016C161.484 24.8125 160.961 24.9766 160.305 25.0938C159.656 25.2188 158.801 25.2812 157.738 25.2812C156.324 25.2812 155.117 25.207 154.117 25.0586C153.117 24.918 152.301 24.6992 151.668 24.4023C151.035 24.0977 150.57 23.7109 150.273 23.2422C149.984 22.7734 149.84 22.2148 149.84 21.5664C149.84 20.8867 149.918 20.3125 150.074 19.8438C150.238 19.3672 150.473 18.9688 150.777 18.6484C151.09 18.3281 151.465 18.0781 151.902 17.8984C152.34 17.7188 152.836 17.582 153.391 17.4883C153.953 17.3945 154.566 17.3359 155.23 17.3125C155.895 17.2891 156.602 17.2773 157.352 17.2773C158.422 17.2773 159.316 17.3242 160.035 17.418C160.754 17.5039 161.34 17.6172 161.793 17.7578C162.254 17.8906 162.602 18.0352 162.836 18.1914C163.07 18.3477 163.238 18.4922 163.34 18.625C163.34 17.75 163.301 17.0039 163.223 16.3867C163.152 15.7695 163.031 15.2539 162.859 14.8398C162.695 14.4258 162.48 14.0977 162.215 13.8555C161.949 13.6055 161.621 13.418 161.23 13.293C160.848 13.168 160.398 13.0898 159.883 13.0586C159.367 13.0195 158.777 13 158.113 13C157.082 13 156.227 13.0273 155.547 13.082C154.867 13.1289 154.328 13.2266 153.93 13.375C153.531 13.5234 153.25 13.7305 153.086 13.9961C152.922 14.2539 152.84 14.5938 152.84 15.0156H150.59C150.59 14.3047 150.715 13.7031 150.965 13.2109C151.223 12.7188 151.645 12.3203 152.23 12.0156C152.824 11.7031 153.602 11.4766 154.562 11.3359C155.523 11.1953 156.707 11.125 158.113 11.125C159.488 11.125 160.652 11.2383 161.605 11.4648C162.559 11.6914 163.328 12.0898 163.914 12.6602C164.508 13.2305 164.934 14 165.191 14.9688C165.457 15.9297 165.59 17.1484 165.59 18.625V25H163.34V23.1484ZM158.113 23.5C159.105 23.5 159.934 23.4531 160.598 23.3594C161.27 23.2656 161.809 23.125 162.215 22.9375C162.621 22.75 162.91 22.5156 163.082 22.2344C163.254 21.9531 163.34 21.625 163.34 21.25C163.34 20.875 163.238 20.5586 163.035 20.3008C162.84 20.0352 162.508 19.8203 162.039 19.6562C161.578 19.4922 160.965 19.375 160.199 19.3047C159.434 19.2266 158.488 19.1875 157.363 19.1875C156.238 19.1875 155.328 19.207 154.633 19.2461C153.945 19.2852 153.414 19.375 153.039 19.5156C152.664 19.6562 152.41 19.8633 152.277 20.1367C152.152 20.4102 152.09 20.7812 152.09 21.25C152.09 21.7188 152.156 22.1016 152.289 22.3984C152.43 22.6875 152.711 22.9141 153.133 23.0781C153.555 23.2422 154.16 23.3555 154.949 23.418C155.746 23.4727 156.801 23.5 158.113 23.5ZM182.102 25V17.5C182.102 16.6641 182.039 15.9609 181.914 15.3906C181.789 14.8125 181.539 14.3477 181.164 13.9961C180.789 13.6445 180.258 13.3906 179.57 13.2344C178.883 13.0781 177.977 13 176.852 13C175.633 13 174.633 13.0898 173.852 13.2695C173.078 13.4492 172.469 13.7031 172.023 14.0312C171.578 14.3594 171.27 14.7539 171.098 15.2148C170.934 15.6758 170.852 16.1875 170.852 16.75V25H168.602V11.5H170.852V13.75C171.016 13.3672 171.25 13.0391 171.555 12.7656C171.859 12.4844 172.203 12.2461 172.586 12.0508C172.969 11.8555 173.383 11.6992 173.828 11.582C174.273 11.457 174.719 11.3633 175.164 11.3008C175.609 11.2305 176.039 11.1836 176.453 11.1602C176.875 11.1367 177.258 11.125 177.602 11.125C178.602 11.125 179.461 11.1875 180.18 11.3125C180.906 11.4375 181.52 11.6211 182.02 11.8633C182.527 12.1055 182.934 12.4062 183.238 12.7656C183.543 13.125 183.777 13.543 183.941 14.0195C184.113 14.4883 184.227 15.0156 184.281 15.6016C184.336 16.1797 184.363 16.8125 184.363 17.5L184.352 25H182.102ZM193.375 11.5H195.625V25H193.375V11.5ZM195.625 9.25H193.375V7H195.625V9.25ZM212.875 25V17.5C212.875 16.6641 212.812 15.9609 212.688 15.3906C212.562 14.8125 212.312 14.3477 211.938 13.9961C211.562 13.6445 211.031 13.3906 210.344 13.2344C209.656 13.0781 208.75 13 207.625 13C206.406 13 205.406 13.0898 204.625 13.2695C203.852 13.4492 203.242 13.7031 202.797 14.0312C202.352 14.3594 202.043 14.7539 201.871 15.2148C201.707 15.6758 201.625 16.1875 201.625 16.75V25H199.375V11.5H201.625V13.75C201.789 13.3672 202.023 13.0391 202.328 12.7656C202.633 12.4844 202.977 12.2461 203.359 12.0508C203.742 11.8555 204.156 11.6992 204.602 11.582C205.047 11.457 205.492 11.3633 205.938 11.3008C206.383 11.2305 206.812 11.1836 207.227 11.1602C207.648 11.1367 208.031 11.125 208.375 11.125C209.375 11.125 210.234 11.1875 210.953 11.3125C211.68 11.4375 212.293 11.6211 212.793 11.8633C213.301 12.1055 213.707 12.4062 214.012 12.7656C214.316 13.125 214.551 13.543 214.715 14.0195C214.887 14.4883 215 15.0156 215.055 15.6016C215.109 16.1797 215.137 16.8125 215.137 17.5L215.125 25H212.875ZM223.773 25L216.648 11.5H219.273L225.273 23.5L231.273 11.5H233.898L226.773 25H223.773ZM243.273 25.2578C241.773 25.2578 240.5 25.1562 239.453 24.9531C238.406 24.7422 237.555 24.3828 236.898 23.875C236.242 23.3672 235.766 22.6875 235.469 21.8359C235.172 20.9844 235.023 19.9141 235.023 18.625C235.023 17.1484 235.172 15.9297 235.469 14.9688C235.766 14 236.242 13.2305 236.898 12.6602C237.555 12.0898 238.406 11.6914 239.453 11.4648C240.5 11.2383 241.773 11.125 243.273 11.125C244.344 11.125 245.27 11.2031 246.051 11.3594C246.84 11.5156 247.512 11.7422 248.066 12.0391C248.629 12.3359 249.082 12.6953 249.426 13.1172C249.777 13.5391 250.051 13.9844 250.246 14.4531C250.449 14.9141 250.586 15.457 250.656 16.082C250.734 16.707 250.773 17.3672 250.773 18.0625L250.586 18.8125H237.273C237.273 19.8438 237.375 20.6914 237.578 21.3555C237.781 22.0117 238.117 22.4922 238.586 22.7969C239.055 23.1016 239.672 23.2969 240.438 23.3828C241.203 23.4609 242.148 23.5 243.273 23.5C244.305 23.5 245.156 23.4727 245.828 23.418C246.508 23.3555 247.047 23.2422 247.445 23.0781C247.844 22.9141 248.121 22.6875 248.277 22.3984C248.441 22.1016 248.523 21.7188 248.523 21.25H250.773C250.773 21.9766 250.645 22.5977 250.387 23.1133C250.137 23.6211 249.719 24.0352 249.133 24.3555C248.547 24.668 247.773 24.8945 246.812 25.0352C245.859 25.1836 244.68 25.2578 243.273 25.2578ZM243.273 13C242.523 13 241.852 13.0156 241.258 13.0469C240.672 13.0781 240.156 13.1484 239.711 13.2578C239.273 13.3594 238.898 13.5117 238.586 13.7148C238.273 13.9102 238.02 14.1445 237.824 14.418C237.637 14.6836 237.496 15.0625 237.402 15.5547C237.316 16.0391 237.273 16.625 237.273 17.3125H248.523C248.523 16.3984 248.426 15.6836 248.23 15.168C248.035 14.6445 247.727 14.2148 247.305 13.8789C246.883 13.543 246.34 13.3125 245.676 13.1875C245.012 13.0625 244.211 13 243.273 13ZM261.648 18.8477C260.586 18.8477 259.652 18.832 258.848 18.8008C258.043 18.7695 257.348 18.707 256.762 18.6133C256.184 18.5117 255.699 18.3711 255.309 18.1914C254.926 18.0117 254.621 17.7734 254.395 17.4766C254.168 17.1719 254.008 16.8008 253.914 16.3633C253.82 15.918 253.773 15.4375 253.773 14.9219C253.773 14.2188 253.922 13.6289 254.219 13.1523C254.516 12.668 254.992 12.2773 255.648 11.9805C256.305 11.6758 257.156 11.457 258.203 11.3242C259.25 11.1914 260.523 11.125 262.023 11.125C263.508 11.125 264.73 11.2031 265.691 11.3594C266.66 11.5156 267.426 11.7578 267.988 12.0859C268.559 12.4062 268.957 12.8125 269.184 13.3047C269.41 13.7969 269.523 14.3828 269.523 15.0625H267.273C267.273 14.6406 267.191 14.2969 267.027 14.0312C266.871 13.7656 266.594 13.5586 266.195 13.4102C265.797 13.2539 265.258 13.1484 264.578 13.0938C263.906 13.0312 263.055 13 262.023 13C260.898 13 259.953 13.0156 259.188 13.0469C258.422 13.0781 257.805 13.1562 257.336 13.2812C256.867 13.4062 256.531 13.5977 256.328 13.8555C256.125 14.1133 256.023 14.4688 256.023 14.9219C256.023 15.1875 256.039 15.4492 256.07 15.707C256.109 15.957 256.191 16.1641 256.316 16.3281C256.441 16.4922 256.625 16.6172 256.867 16.7031C257.109 16.7891 257.438 16.8555 257.852 16.9023C258.273 16.9414 258.793 16.9648 259.41 16.9727C260.027 16.9727 260.773 16.9727 261.648 16.9727C262.711 16.9727 263.641 16.9961 264.438 17.043C265.242 17.0898 265.938 17.1719 266.523 17.2891C267.109 17.4062 267.594 17.5859 267.977 17.8281C268.359 18.0703 268.664 18.3359 268.891 18.625C269.125 18.9062 269.289 19.2422 269.383 19.6328C269.477 20.0156 269.523 20.4609 269.523 20.9688C269.523 21.4766 269.477 21.9336 269.383 22.3398C269.289 22.7383 269.125 23.0938 268.891 23.4062C268.656 23.7109 268.336 23.9766 267.93 24.2031C267.531 24.4219 267.027 24.6016 266.418 24.7422C265.809 24.875 265.078 24.9727 264.227 25.0352C263.383 25.1055 262.398 25.1406 261.273 25.1406C259.867 25.1406 258.684 25.0703 257.723 24.9297C256.77 24.7891 256 24.5664 255.414 24.2617C254.828 23.9492 254.406 23.5469 254.148 23.0547C253.898 22.5625 253.773 21.9609 253.773 21.25H256.023C256.023 21.7188 256.102 22.1016 256.258 22.3984C256.422 22.6875 256.703 22.9141 257.102 23.0781C257.5 23.2422 258.035 23.3555 258.707 23.418C259.387 23.4727 260.242 23.5 261.273 23.5C262.211 23.5 263.008 23.4805 263.664 23.4414C264.328 23.3945 264.883 23.3242 265.328 23.2305C265.773 23.1367 266.125 23.0234 266.383 22.8906C266.641 22.7578 266.836 22.5977 266.969 22.4102C267.102 22.2227 267.184 22.0156 267.215 21.7891C267.254 21.5547 267.273 21.2969 267.273 21.0156C267.273 20.7578 267.254 20.5312 267.215 20.3359C267.184 20.1328 267.105 19.9336 266.98 19.7383C266.855 19.5352 266.672 19.3828 266.43 19.2812C266.188 19.1797 265.855 19.0977 265.434 19.0352C265.02 18.9648 264.504 18.918 263.887 18.8945C263.27 18.8633 262.523 18.8477 261.648 18.8477ZM285.648 19C285.648 20.1484 285.555 21.1094 285.367 21.8828C285.18 22.6484 284.863 23.2617 284.418 23.7227C283.98 24.1836 283.402 24.5117 282.684 24.707C281.965 24.9023 281.078 25 280.023 25C279 25 278.141 24.9219 277.445 24.7656C276.75 24.6094 276.188 24.3438 275.758 23.9688C275.328 23.5938 275.02 23.0938 274.832 22.4688C274.645 21.8438 274.551 21.0625 274.551 20.125V13.3516H271.773V11.5H274.551V7.80859H276.801V11.5H285.273V13.3516H276.801V20.125C276.801 20.875 276.855 21.4531 276.965 21.8594C277.082 22.2656 277.266 22.5625 277.516 22.75C277.766 22.9375 278.094 23.0469 278.5 23.0781C278.914 23.1094 279.418 23.125 280.012 23.125C280.48 23.125 280.898 23.1172 281.266 23.1016C281.641 23.0859 281.965 23.0391 282.238 22.9609C282.52 22.875 282.758 22.75 282.953 22.5859C283.148 22.4141 283.305 22.1758 283.422 21.8711C283.547 21.5664 283.637 21.1836 283.691 20.7227C283.746 20.2539 283.773 19.6797 283.773 19H285.648ZM289.398 11.5H291.648V25H289.398V11.5ZM291.648 9.25H289.398V7H291.648V9.25ZM308.523 19C308.523 20.1484 308.43 21.1094 308.242 21.8828C308.055 22.6484 307.738 23.2617 307.293 23.7227C306.855 24.1836 306.277 24.5117 305.559 24.707C304.84 24.9023 303.953 25 302.898 25C301.875 25 301.016 24.9219 300.32 24.7656C299.625 24.6094 299.062 24.3438 298.633 23.9688C298.203 23.5938 297.895 23.0938 297.707 22.4688C297.52 21.8438 297.426 21.0625 297.426 20.125V13.3516H294.648V11.5H297.426V7.80859H299.676V11.5H308.148V13.3516H299.676V20.125C299.676 20.875 299.73 21.4531 299.84 21.8594C299.957 22.2656 300.141 22.5625 300.391 22.75C300.641 22.9375 300.969 23.0469 301.375 23.0781C301.789 23.1094 302.293 23.125 302.887 23.125C303.355 23.125 303.773 23.1172 304.141 23.1016C304.516 23.0859 304.84 23.0391 305.113 22.9609C305.395 22.875 305.633 22.75 305.828 22.5859C306.023 22.4141 306.18 22.1758 306.297 21.8711C306.422 21.5664 306.512 21.1836 306.566 20.7227C306.621 20.2539 306.648 19.6797 306.648 19H308.523ZM319.398 18.8477C318.336 18.8477 317.402 18.832 316.598 18.8008C315.793 18.7695 315.098 18.707 314.512 18.6133C313.934 18.5117 313.449 18.3711 313.059 18.1914C312.676 18.0117 312.371 17.7734 312.145 17.4766C311.918 17.1719 311.758 16.8008 311.664 16.3633C311.57 15.918 311.523 15.4375 311.523 14.9219C311.523 14.2188 311.672 13.6289 311.969 13.1523C312.266 12.668 312.742 12.2773 313.398 11.9805C314.055 11.6758 314.906 11.457 315.953 11.3242C317 11.1914 318.273 11.125 319.773 11.125C321.258 11.125 322.48 11.2031 323.441 11.3594C324.41 11.5156 325.176 11.7578 325.738 12.0859C326.309 12.4062 326.707 12.8125 326.934 13.3047C327.16 13.7969 327.273 14.3828 327.273 15.0625H325.023C325.023 14.6406 324.941 14.2969 324.777 14.0312C324.621 13.7656 324.344 13.5586 323.945 13.4102C323.547 13.2539 323.008 13.1484 322.328 13.0938C321.656 13.0312 320.805 13 319.773 13C318.648 13 317.703 13.0156 316.938 13.0469C316.172 13.0781 315.555 13.1562 315.086 13.2812C314.617 13.4062 314.281 13.5977 314.078 13.8555C313.875 14.1133 313.773 14.4688 313.773 14.9219C313.773 15.1875 313.789 15.4492 313.82 15.707C313.859 15.957 313.941 16.1641 314.066 16.3281C314.191 16.4922 314.375 16.6172 314.617 16.7031C314.859 16.7891 315.188 16.8555 315.602 16.9023C316.023 16.9414 316.543 16.9648 317.16 16.9727C317.777 16.9727 318.523 16.9727 319.398 16.9727C320.461 16.9727 321.391 16.9961 322.188 17.043C322.992 17.0898 323.688 17.1719 324.273 17.2891C324.859 17.4062 325.344 17.5859 325.727 17.8281C326.109 18.0703 326.414 18.3359 326.641 18.625C326.875 18.9062 327.039 19.2422 327.133 19.6328C327.227 20.0156 327.273 20.4609 327.273 20.9688C327.273 21.4766 327.227 21.9336 327.133 22.3398C327.039 22.7383 326.875 23.0938 326.641 23.4062C326.406 23.7109 326.086 23.9766 325.68 24.2031C325.281 24.4219 324.777 24.6016 324.168 24.7422C323.559 24.875 322.828 24.9727 321.977 25.0352C321.133 25.1055 320.148 25.1406 319.023 25.1406C317.617 25.1406 316.434 25.0703 315.473 24.9297C314.52 24.7891 313.75 24.5664 313.164 24.2617C312.578 23.9492 312.156 23.5469 311.898 23.0547C311.648 22.5625 311.523 21.9609 311.523 21.25H313.773C313.773 21.7188 313.852 22.1016 314.008 22.3984C314.172 22.6875 314.453 22.9141 314.852 23.0781C315.25 23.2422 315.785 23.3555 316.457 23.418C317.137 23.4727 317.992 23.5 319.023 23.5C319.961 23.5 320.758 23.4805 321.414 23.4414C322.078 23.3945 322.633 23.3242 323.078 23.2305C323.523 23.1367 323.875 23.0234 324.133 22.8906C324.391 22.7578 324.586 22.5977 324.719 22.4102C324.852 22.2227 324.934 22.0156 324.965 21.7891C325.004 21.5547 325.023 21.2969 325.023 21.0156C325.023 20.7578 325.004 20.5312 324.965 20.3359C324.934 20.1328 324.855 19.9336 324.73 19.7383C324.605 19.5352 324.422 19.3828 324.18 19.2812C323.938 19.1797 323.605 19.0977 323.184 19.0352C322.77 18.9648 322.254 18.918 321.637 18.8945C321.02 18.8633 320.273 18.8477 319.398 18.8477ZM331.023 11.5H333.273V25H331.023V11.5ZM333.273 9.25H331.023V7H333.273V9.25ZM343.398 25L336.273 11.5H338.898L344.898 23.5L350.523 11.5H353.148L346.398 25L346.023 25.75C345.836 26.125 345.648 26.4766 345.461 26.8047C345.281 27.1406 345.074 27.4453 344.84 27.7188C344.605 28 344.328 28.25 344.008 28.4688C343.688 28.6875 343.293 28.8711 342.824 29.0195C342.363 29.1758 341.812 29.293 341.172 29.3711C340.531 29.457 339.773 29.5 338.898 29.5V27.625C339.648 27.625 340.281 27.5938 340.797 27.5312C341.312 27.4766 341.742 27.3906 342.086 27.2734C342.438 27.1641 342.719 27.0312 342.93 26.875C343.141 26.7188 343.316 26.543 343.457 26.3477C343.598 26.1523 343.715 25.9414 343.809 25.7148C343.91 25.4883 344.023 25.25 344.148 25H343.398ZM368.09 23.1484C368.066 23.2422 367.891 23.4766 367.562 23.8516C367.328 24.1328 367.016 24.3828 366.625 24.6016C366.234 24.8125 365.711 24.9766 365.055 25.0938C364.406 25.2188 363.551 25.2812 362.488 25.2812C361.074 25.2812 359.867 25.207 358.867 25.0586C357.867 24.918 357.051 24.6992 356.418 24.4023C355.785 24.0977 355.32 23.7109 355.023 23.2422C354.734 22.7734 354.59 22.2148 354.59 21.5664C354.59 20.8867 354.668 20.3125 354.824 19.8438C354.988 19.3672 355.223 18.9688 355.527 18.6484C355.84 18.3281 356.215 18.0781 356.652 17.8984C357.09 17.7188 357.586 17.582 358.141 17.4883C358.703 17.3945 359.316 17.3359 359.98 17.3125C360.645 17.2891 361.352 17.2773 362.102 17.2773C363.172 17.2773 364.066 17.3242 364.785 17.418C365.504 17.5039 366.09 17.6172 366.543 17.7578C367.004 17.8906 367.352 18.0352 367.586 18.1914C367.82 18.3477 367.988 18.4922 368.09 18.625C368.09 17.75 368.051 17.0039 367.973 16.3867C367.902 15.7695 367.781 15.2539 367.609 14.8398C367.445 14.4258 367.23 14.0977 366.965 13.8555C366.699 13.6055 366.371 13.418 365.98 13.293C365.598 13.168 365.148 13.0898 364.633 13.0586C364.117 13.0195 363.527 13 362.863 13C361.832 13 360.977 13.0273 360.297 13.082C359.617 13.1289 359.078 13.2266 358.68 13.375C358.281 13.5234 358 13.7305 357.836 13.9961C357.672 14.2539 357.59 14.5938 357.59 15.0156H355.34C355.34 14.3047 355.465 13.7031 355.715 13.2109C355.973 12.7188 356.395 12.3203 356.98 12.0156C357.574 11.7031 358.352 11.4766 359.312 11.3359C360.273 11.1953 361.457 11.125 362.863 11.125C364.238 11.125 365.402 11.2383 366.355 11.4648C367.309 11.6914 368.078 12.0898 368.664 12.6602C369.258 13.2305 369.684 14 369.941 14.9688C370.207 15.9297 370.34 17.1484 370.34 18.625V25H368.09V23.1484ZM362.863 23.5C363.855 23.5 364.684 23.4531 365.348 23.3594C366.02 23.2656 366.559 23.125 366.965 22.9375C367.371 22.75 367.66 22.5156 367.832 22.2344C368.004 21.9531 368.09 21.625 368.09 21.25C368.09 20.875 367.988 20.5586 367.785 20.3008C367.59 20.0352 367.258 19.8203 366.789 19.6562C366.328 19.4922 365.715 19.375 364.949 19.3047C364.184 19.2266 363.238 19.1875 362.113 19.1875C360.988 19.1875 360.078 19.207 359.383 19.2461C358.695 19.2852 358.164 19.375 357.789 19.5156C357.414 19.6562 357.16 19.8633 357.027 20.1367C356.902 20.4102 356.84 20.7812 356.84 21.25C356.84 21.7188 356.906 22.1016 357.039 22.3984C357.18 22.6875 357.461 22.9141 357.883 23.0781C358.305 23.2422 358.91 23.3555 359.699 23.418C360.496 23.4727 361.551 23.5 362.863 23.5ZM378.227 18.1562C378.227 16.7734 378.375 15.6289 378.672 14.7227C378.969 13.8164 379.445 13.0977 380.102 12.5664C380.758 12.0352 381.609 11.6641 382.656 11.4531C383.703 11.2344 384.977 11.125 386.477 11.125C387.977 11.125 389.25 11.2344 390.297 11.4531C391.344 11.6641 392.195 12.0352 392.852 12.5664C393.508 13.0977 393.984 13.8164 394.281 14.7227C394.578 15.6289 394.727 16.7734 394.727 18.1562C394.727 19.5391 394.578 20.6875 394.281 21.6016C393.984 22.5156 393.508 23.2422 392.852 23.7812C392.195 24.3203 391.344 24.7031 390.297 24.9297C389.25 25.1484 387.977 25.2578 386.477 25.2578C384.977 25.2578 383.703 25.1484 382.656 24.9297C381.609 24.7031 380.758 24.3203 380.102 23.7812C379.445 23.2422 378.969 22.5156 378.672 21.6016C378.375 20.6875 378.227 19.5391 378.227 18.1562ZM380.477 18.1562C380.477 18.9062 380.504 19.5586 380.559 20.1133C380.613 20.668 380.715 21.1445 380.863 21.543C381.02 21.9414 381.234 22.2656 381.508 22.5156C381.781 22.7656 382.141 22.9648 382.586 23.1133C383.031 23.2617 383.57 23.3633 384.203 23.418C384.844 23.4727 385.602 23.5 386.477 23.5C387.227 23.5 387.895 23.4844 388.48 23.4531C389.074 23.4141 389.59 23.332 390.027 23.207C390.473 23.082 390.852 22.9062 391.164 22.6797C391.477 22.4453 391.727 22.1289 391.914 21.7305C392.109 21.332 392.25 20.8438 392.336 20.2656C392.43 19.6797 392.477 18.9766 392.477 18.1562C392.477 17.3516 392.43 16.668 392.336 16.1055C392.25 15.5352 392.109 15.0586 391.914 14.6758C391.727 14.293 391.477 13.9922 391.164 13.7734C390.852 13.5469 390.473 13.3789 390.027 13.2695C389.59 13.1523 389.074 13.0781 388.48 13.0469C387.895 13.0156 387.227 13 386.477 13C385.727 13 385.055 13.0156 384.461 13.0469C383.875 13.0781 383.359 13.1523 382.914 13.2695C382.477 13.3789 382.102 13.5469 381.789 13.7734C381.477 13.9922 381.223 14.293 381.027 14.6758C380.84 15.0586 380.699 15.5352 380.605 16.1055C380.52 16.668 380.477 17.3516 380.477 18.1562ZM398.102 7H400.352V25H398.102V7ZM404.852 11.5H407.102V25H404.852V11.5ZM407.102 9.25H404.852V7H407.102V9.25ZM419.102 25.2578C418.023 25.2578 417.125 25.1836 416.406 25.0352C415.695 24.8945 415.113 24.7422 414.66 24.5781C414.207 24.4062 413.863 24.1406 413.629 23.7812C413.395 23.4141 413.219 23.1289 413.102 22.9258V25H410.852V7H413.102V12.7773C413.203 12.6133 413.371 12.4375 413.605 12.25C413.848 12.0547 414.195 11.875 414.648 11.7109C415.109 11.5391 415.699 11.3984 416.418 11.2891C417.137 11.1797 418.031 11.125 419.102 11.125C420.602 11.125 421.875 11.2383 422.922 11.4648C423.969 11.6914 424.82 12.0781 425.477 12.625C426.133 13.1719 426.609 13.9062 426.906 14.8281C427.203 15.7422 427.352 16.8906 427.352 18.2734C427.352 19.6328 427.203 20.7617 426.906 21.6602C426.609 22.5586 426.133 23.2734 425.477 23.8047C424.82 24.3359 423.969 24.7109 422.922 24.9297C421.875 25.1484 420.602 25.2578 419.102 25.2578ZM419.102 23.5C419.977 23.5 420.73 23.4727 421.363 23.418C422.004 23.3633 422.547 23.2656 422.992 23.125C423.438 22.9844 423.797 22.7891 424.07 22.5391C424.352 22.2891 424.566 21.9727 424.715 21.5898C424.871 21.1992 424.973 20.7344 425.02 20.1953C425.074 19.6484 425.102 19.0078 425.102 18.2734C425.102 17.5391 425.074 16.8984 425.02 16.3516C424.973 15.8047 424.871 15.3398 424.715 14.957C424.566 14.5664 424.352 14.2461 424.07 13.9961C423.797 13.7383 423.438 13.5391 422.992 13.3984C422.547 13.25 422.004 13.1484 421.363 13.0938C420.73 13.0391 419.977 13.0117 419.102 13.0117C418.352 13.0117 417.684 13.0312 417.098 13.0703C416.512 13.1016 415.996 13.1797 415.551 13.3047C415.105 13.4297 414.727 13.6094 414.414 13.8438C414.109 14.0781 413.859 14.3906 413.664 14.7812C413.469 15.1719 413.324 15.6562 413.23 16.2344C413.145 16.8125 413.102 17.5039 413.102 18.3086C413.102 19.1055 413.145 19.7891 413.23 20.3594C413.324 20.9219 413.469 21.3945 413.664 21.7773C413.859 22.1602 414.109 22.4688 414.414 22.7031C414.727 22.9297 415.105 23.1016 415.551 23.2188C415.996 23.3359 416.512 23.4141 417.098 23.4531C417.684 23.4844 418.352 23.5 419.102 23.5ZM435.227 7H437.477V16.8438H438.227L446.477 11.5H449.852L440.289 17.7812L450.227 25H446.852L438.227 18.5312H437.477V25H435.227V7ZM452.477 11.5H454.727V25H452.477V11.5ZM454.727 9.25H452.477V7H454.727V9.25ZM470.102 15.8945C470.102 15.332 470.059 14.8672 469.973 14.5C469.895 14.125 469.703 13.8281 469.398 13.6094C469.094 13.3828 468.641 13.2266 468.039 13.1406C467.445 13.0469 466.633 13 465.602 13C464.594 13 463.773 13.0898 463.141 13.2695C462.508 13.4414 462.012 13.6875 461.652 14.0078C461.293 14.3281 461.047 14.7109 460.914 15.1562C460.789 15.6016 460.727 16.0977 460.727 16.6445V25H458.477V11.5H460.727V13.6445C460.805 13.4023 460.949 13.1367 461.16 12.8477C461.371 12.5508 461.691 12.2773 462.121 12.0273C462.551 11.7695 463.105 11.5547 463.785 11.3828C464.473 11.2109 465.328 11.125 466.352 11.125C467.523 11.125 468.477 11.2305 469.211 11.4414C469.945 11.6445 470.516 11.9492 470.922 12.3555C471.336 12.7539 471.613 13.25 471.754 13.8438C471.902 14.4375 471.977 15.1211 471.977 15.8945H470.102ZM474.227 11.5H476.477V25H474.227V11.5ZM476.477 9.25H474.227V7H476.477V9.25ZM488.102 18.8477C487.039 18.8477 486.105 18.832 485.301 18.8008C484.496 18.7695 483.801 18.707 483.215 18.6133C482.637 18.5117 482.152 18.3711 481.762 18.1914C481.379 18.0117 481.074 17.7734 480.848 17.4766C480.621 17.1719 480.461 16.8008 480.367 16.3633C480.273 15.918 480.227 15.4375 480.227 14.9219C480.227 14.2188 480.375 13.6289 480.672 13.1523C480.969 12.668 481.445 12.2773 482.102 11.9805C482.758 11.6758 483.609 11.457 484.656 11.3242C485.703 11.1914 486.977 11.125 488.477 11.125C489.961 11.125 491.184 11.2031 492.145 11.3594C493.113 11.5156 493.879 11.7578 494.441 12.0859C495.012 12.4062 495.41 12.8125 495.637 13.3047C495.863 13.7969 495.977 14.3828 495.977 15.0625H493.727C493.727 14.6406 493.645 14.2969 493.48 14.0312C493.324 13.7656 493.047 13.5586 492.648 13.4102C492.25 13.2539 491.711 13.1484 491.031 13.0938C490.359 13.0312 489.508 13 488.477 13C487.352 13 486.406 13.0156 485.641 13.0469C484.875 13.0781 484.258 13.1562 483.789 13.2812C483.32 13.4062 482.984 13.5977 482.781 13.8555C482.578 14.1133 482.477 14.4688 482.477 14.9219C482.477 15.1875 482.492 15.4492 482.523 15.707C482.562 15.957 482.645 16.1641 482.77 16.3281C482.895 16.4922 483.078 16.6172 483.32 16.7031C483.562 16.7891 483.891 16.8555 484.305 16.9023C484.727 16.9414 485.246 16.9648 485.863 16.9727C486.48 16.9727 487.227 16.9727 488.102 16.9727C489.164 16.9727 490.094 16.9961 490.891 17.043C491.695 17.0898 492.391 17.1719 492.977 17.2891C493.562 17.4062 494.047 17.5859 494.43 17.8281C494.812 18.0703 495.117 18.3359 495.344 18.625C495.578 18.9062 495.742 19.2422 495.836 19.6328C495.93 20.0156 495.977 20.4609 495.977 20.9688C495.977 21.4766 495.93 21.9336 495.836 22.3398C495.742 22.7383 495.578 23.0938 495.344 23.4062C495.109 23.7109 494.789 23.9766 494.383 24.2031C493.984 24.4219 493.48 24.6016 492.871 24.7422C492.262 24.875 491.531 24.9727 490.68 25.0352C489.836 25.1055 488.852 25.1406 487.727 25.1406C486.32 25.1406 485.137 25.0703 484.176 24.9297C483.223 24.7891 482.453 24.5664 481.867 24.2617C481.281 23.9492 480.859 23.5469 480.602 23.0547C480.352 22.5625 480.227 21.9609 480.227 21.25H482.477C482.477 21.7188 482.555 22.1016 482.711 22.3984C482.875 22.6875 483.156 22.9141 483.555 23.0781C483.953 23.2422 484.488 23.3555 485.16 23.418C485.84 23.4727 486.695 23.5 487.727 23.5C488.664 23.5 489.461 23.4805 490.117 23.4414C490.781 23.3945 491.336 23.3242 491.781 23.2305C492.227 23.1367 492.578 23.0234 492.836 22.8906C493.094 22.7578 493.289 22.5977 493.422 22.4102C493.555 22.2227 493.637 22.0156 493.668 21.7891C493.707 21.5547 493.727 21.2969 493.727 21.0156C493.727 20.7578 493.707 20.5312 493.668 20.3359C493.637 20.1328 493.559 19.9336 493.434 19.7383C493.309 19.5352 493.125 19.3828 492.883 19.2812C492.641 19.1797 492.309 19.0977 491.887 19.0352C491.473 18.9648 490.957 18.918 490.34 18.8945C489.723 18.8633 488.977 18.8477 488.102 18.8477ZM512.477 25V17.3828C512.477 16.5703 512.414 15.8867 512.289 15.332C512.164 14.7695 511.914 14.3164 511.539 13.9727C511.164 13.6289 510.633 13.3828 509.945 13.2344C509.258 13.0781 508.352 13 507.227 13C506.008 13 505.008 13.0898 504.227 13.2695C503.453 13.4414 502.844 13.6875 502.398 14.0078C501.953 14.3203 501.645 14.6992 501.473 15.1445C501.309 15.5898 501.227 16.0859 501.227 16.6328V25H498.977V7H501.227V13.6328C501.383 13.2656 501.605 12.9492 501.895 12.6836C502.184 12.418 502.516 12.1914 502.891 12.0039C503.273 11.8164 503.684 11.668 504.121 11.5586C504.559 11.4414 505 11.3516 505.445 11.2891C505.898 11.2266 506.34 11.1836 506.77 11.1602C507.207 11.1367 507.609 11.125 507.977 11.125C508.977 11.125 509.836 11.1875 510.555 11.3125C511.281 11.4297 511.895 11.6094 512.395 11.8516C512.902 12.0859 513.309 12.3789 513.613 12.7305C513.918 13.082 514.152 13.4922 514.316 13.9609C514.488 14.4219 514.602 14.9414 514.656 15.5195C514.711 16.0898 514.738 16.7109 514.738 17.3828L514.727 25H512.477Z" fill="#141E1F"/>
</svg>
