<svg width="447" height="29" viewBox="0 0 447 29" fill="none" xmlns="http://www.w3.org/2000/svg">
<rect y="4" width="20" height="20" rx="10" fill="#1F69F8"/>
<path d="M56.5 7.5V24H54.25V6H58L68.4883 21.75L78.9766 6H82.5625V24H80.3125V7.74609L69.625 24H67.3516L56.5 7.5ZM99.7539 22.1484C99.7305 22.2422 99.5547 22.4766 99.2266 22.8516C98.9922 23.1328 98.6797 23.3828 98.2891 23.6016C97.8984 23.8125 97.375 23.9766 96.7188 24.0938C96.0703 24.2188 95.2148 24.2812 94.1523 24.2812C92.7383 24.2812 91.5312 24.207 90.5312 24.0586C89.5312 23.918 88.7148 23.6992 88.082 23.4023C87.4492 23.0977 86.9844 22.7109 86.6875 22.2422C86.3984 21.7734 86.2539 21.2148 86.2539 20.5664C86.2539 19.8867 86.332 19.3125 86.4883 18.8438C86.6523 18.3672 86.8867 17.9688 87.1914 17.6484C87.5039 17.3281 87.8789 17.0781 88.3164 16.8984C88.7539 16.7188 89.25 16.582 89.8047 16.4883C90.3672 16.3945 90.9805 16.3359 91.6445 16.3125C92.3086 16.2891 93.0156 16.2773 93.7656 16.2773C94.8359 16.2773 95.7305 16.3242 96.4492 16.418C97.168 16.5039 97.7539 16.6172 98.207 16.7578C98.668 16.8906 99.0156 17.0352 99.25 17.1914C99.4844 17.3477 99.6523 17.4922 99.7539 17.625C99.7539 16.75 99.7148 16.0039 99.6367 15.3867C99.5664 14.7695 99.4453 14.2539 99.2734 13.8398C99.1094 13.4258 98.8945 13.0977 98.6289 12.8555C98.3633 12.6055 98.0352 12.418 97.6445 12.293C97.2617 12.168 96.8125 12.0898 96.2969 12.0586C95.7812 12.0195 95.1914 12 94.5273 12C93.4961 12 92.6406 12.0273 91.9609 12.082C91.2812 12.1289 90.7422 12.2266 90.3438 12.375C89.9453 12.5234 89.6641 12.7305 89.5 12.9961C89.3359 13.2539 89.2539 13.5938 89.2539 14.0156H87.0039C87.0039 13.3047 87.1289 12.7031 87.3789 12.2109C87.6367 11.7188 88.0586 11.3203 88.6445 11.0156C89.2383 10.7031 90.0156 10.4766 90.9766 10.3359C91.9375 10.1953 93.1211 10.125 94.5273 10.125C95.9023 10.125 97.0664 10.2383 98.0195 10.4648C98.9727 10.6914 99.7422 11.0898 100.328 11.6602C100.922 12.2305 101.348 13 101.605 13.9688C101.871 14.9297 102.004 16.1484 102.004 17.625V24H99.7539V22.1484ZM94.5273 22.5C95.5195 22.5 96.3477 22.4531 97.0117 22.3594C97.6836 22.2656 98.2227 22.125 98.6289 21.9375C99.0352 21.75 99.3242 21.5156 99.4961 21.2344C99.668 20.9531 99.7539 20.625 99.7539 20.25C99.7539 19.875 99.6523 19.5586 99.4492 19.3008C99.2539 19.0352 98.9219 18.8203 98.4531 18.6562C97.9922 18.4922 97.3789 18.375 96.6133 18.3047C95.8477 18.2266 94.9023 18.1875 93.7773 18.1875C92.6523 18.1875 91.7422 18.207 91.0469 18.2461C90.3594 18.2852 89.8281 18.375 89.4531 18.5156C89.0781 18.6562 88.8242 18.8633 88.6914 19.1367C88.5664 19.4102 88.5039 19.7812 88.5039 20.25C88.5039 20.7188 88.5703 21.1016 88.7031 21.3984C88.8438 21.6875 89.125 21.9141 89.5469 22.0781C89.9688 22.2422 90.5742 22.3555 91.3633 22.418C92.1602 22.4727 93.2148 22.5 94.5273 22.5ZM116.641 14.8945C116.641 14.332 116.598 13.8672 116.512 13.5C116.434 13.125 116.242 12.8281 115.938 12.6094C115.633 12.3828 115.18 12.2266 114.578 12.1406C113.984 12.0469 113.172 12 112.141 12C111.133 12 110.312 12.0898 109.68 12.2695C109.047 12.4414 108.551 12.6875 108.191 13.0078C107.832 13.3281 107.586 13.7109 107.453 14.1562C107.328 14.6016 107.266 15.0977 107.266 15.6445V24H105.016V10.5H107.266V12.6445C107.344 12.4023 107.488 12.1367 107.699 11.8477C107.91 11.5508 108.23 11.2773 108.66 11.0273C109.09 10.7695 109.645 10.5547 110.324 10.3828C111.012 10.2109 111.867 10.125 112.891 10.125C114.062 10.125 115.016 10.2305 115.75 10.4414C116.484 10.6445 117.055 10.9492 117.461 11.3555C117.875 11.7539 118.152 12.25 118.293 12.8438C118.441 13.4375 118.516 14.1211 118.516 14.8945H116.641ZM120.016 6H122.266V15.8438H123.016L131.266 10.5H134.641L125.078 16.7812L135.016 24H131.641L123.016 17.5312H122.266V24H120.016V6ZM148.832 22.1484C148.809 22.2422 148.633 22.4766 148.305 22.8516C148.07 23.1328 147.758 23.3828 147.367 23.6016C146.977 23.8125 146.453 23.9766 145.797 24.0938C145.148 24.2188 144.293 24.2812 143.23 24.2812C141.816 24.2812 140.609 24.207 139.609 24.0586C138.609 23.918 137.793 23.6992 137.16 23.4023C136.527 23.0977 136.062 22.7109 135.766 22.2422C135.477 21.7734 135.332 21.2148 135.332 20.5664C135.332 19.8867 135.41 19.3125 135.566 18.8438C135.73 18.3672 135.965 17.9688 136.27 17.6484C136.582 17.3281 136.957 17.0781 137.395 16.8984C137.832 16.7188 138.328 16.582 138.883 16.4883C139.445 16.3945 140.059 16.3359 140.723 16.3125C141.387 16.2891 142.094 16.2773 142.844 16.2773C143.914 16.2773 144.809 16.3242 145.527 16.418C146.246 16.5039 146.832 16.6172 147.285 16.7578C147.746 16.8906 148.094 17.0352 148.328 17.1914C148.562 17.3477 148.73 17.4922 148.832 17.625C148.832 16.75 148.793 16.0039 148.715 15.3867C148.645 14.7695 148.523 14.2539 148.352 13.8398C148.188 13.4258 147.973 13.0977 147.707 12.8555C147.441 12.6055 147.113 12.418 146.723 12.293C146.34 12.168 145.891 12.0898 145.375 12.0586C144.859 12.0195 144.27 12 143.605 12C142.574 12 141.719 12.0273 141.039 12.082C140.359 12.1289 139.82 12.2266 139.422 12.375C139.023 12.5234 138.742 12.7305 138.578 12.9961C138.414 13.2539 138.332 13.5938 138.332 14.0156H136.082C136.082 13.3047 136.207 12.7031 136.457 12.2109C136.715 11.7188 137.137 11.3203 137.723 11.0156C138.316 10.7031 139.094 10.4766 140.055 10.3359C141.016 10.1953 142.199 10.125 143.605 10.125C144.98 10.125 146.145 10.2383 147.098 10.4648C148.051 10.6914 148.82 11.0898 149.406 11.6602C150 12.2305 150.426 13 150.684 13.9688C150.949 14.9297 151.082 16.1484 151.082 17.625V24H148.832V22.1484ZM143.605 22.5C144.598 22.5 145.426 22.4531 146.09 22.3594C146.762 22.2656 147.301 22.125 147.707 21.9375C148.113 21.75 148.402 21.5156 148.574 21.2344C148.746 20.9531 148.832 20.625 148.832 20.25C148.832 19.875 148.73 19.5586 148.527 19.3008C148.332 19.0352 148 18.8203 147.531 18.6562C147.07 18.4922 146.457 18.375 145.691 18.3047C144.926 18.2266 143.98 18.1875 142.855 18.1875C141.73 18.1875 140.82 18.207 140.125 18.2461C139.438 18.2852 138.906 18.375 138.531 18.5156C138.156 18.6562 137.902 18.8633 137.77 19.1367C137.645 19.4102 137.582 19.7812 137.582 20.25C137.582 20.7188 137.648 21.1016 137.781 21.3984C137.922 21.6875 138.203 21.9141 138.625 22.0781C139.047 22.2422 139.652 22.3555 140.441 22.418C141.238 22.4727 142.293 22.5 143.605 22.5ZM154.844 10.5H168.344V12.375L157.07 22.3242H168.344V24H154.094V22.125L165.531 12.1523H154.844V10.5ZM172.094 10.5H174.344V24H172.094V10.5ZM174.344 8.25H172.094V6H174.344V8.25ZM184.469 24L177.344 10.5H179.969L185.969 22.5L191.594 10.5H194.219L187.469 24L187.094 24.75C186.906 25.125 186.719 25.4766 186.531 25.8047C186.352 26.1406 186.145 26.4453 185.91 26.7188C185.676 27 185.398 27.25 185.078 27.4688C184.758 27.6875 184.363 27.8711 183.895 28.0195C183.434 28.1758 182.883 28.293 182.242 28.3711C181.602 28.457 180.844 28.5 179.969 28.5V26.625C180.719 26.625 181.352 26.5938 181.867 26.5312C182.383 26.4766 182.812 26.3906 183.156 26.2734C183.508 26.1641 183.789 26.0312 184 25.875C184.211 25.7188 184.387 25.543 184.527 25.3477C184.668 25.1523 184.785 24.9414 184.879 24.7148C184.98 24.4883 185.094 24.25 185.219 24H184.469ZM201.344 17.1562C201.344 15.7734 201.492 14.6289 201.789 13.7227C202.086 12.8164 202.562 12.0977 203.219 11.5664C203.875 11.0352 204.727 10.6641 205.773 10.4531C206.82 10.2344 208.094 10.125 209.594 10.125C211.094 10.125 212.367 10.2344 213.414 10.4531C214.461 10.6641 215.312 11.0352 215.969 11.5664C216.625 12.0977 217.102 12.8164 217.398 13.7227C217.695 14.6289 217.844 15.7734 217.844 17.1562C217.844 18.5391 217.695 19.6875 217.398 20.6016C217.102 21.5156 216.625 22.2422 215.969 22.7812C215.312 23.3203 214.461 23.7031 213.414 23.9297C212.367 24.1484 211.094 24.2578 209.594 24.2578C208.094 24.2578 206.82 24.1484 205.773 23.9297C204.727 23.7031 203.875 23.3203 203.219 22.7812C202.562 22.2422 202.086 21.5156 201.789 20.6016C201.492 19.6875 201.344 18.5391 201.344 17.1562ZM203.594 17.1562C203.594 17.9062 203.621 18.5586 203.676 19.1133C203.73 19.668 203.832 20.1445 203.98 20.543C204.137 20.9414 204.352 21.2656 204.625 21.5156C204.898 21.7656 205.258 21.9648 205.703 22.1133C206.148 22.2617 206.688 22.3633 207.32 22.418C207.961 22.4727 208.719 22.5 209.594 22.5C210.344 22.5 211.012 22.4844 211.598 22.4531C212.191 22.4141 212.707 22.332 213.145 22.207C213.59 22.082 213.969 21.9062 214.281 21.6797C214.594 21.4453 214.844 21.1289 215.031 20.7305C215.227 20.332 215.367 19.8438 215.453 19.2656C215.547 18.6797 215.594 17.9766 215.594 17.1562C215.594 16.3516 215.547 15.668 215.453 15.1055C215.367 14.5352 215.227 14.0586 215.031 13.6758C214.844 13.293 214.594 12.9922 214.281 12.7734C213.969 12.5469 213.59 12.3789 213.145 12.2695C212.707 12.1523 212.191 12.0781 211.598 12.0469C211.012 12.0156 210.344 12 209.594 12C208.844 12 208.172 12.0156 207.578 12.0469C206.992 12.0781 206.477 12.1523 206.031 12.2695C205.594 12.3789 205.219 12.5469 204.906 12.7734C204.594 12.9922 204.34 13.293 204.145 13.6758C203.957 14.0586 203.816 14.5352 203.723 15.1055C203.637 15.668 203.594 16.3516 203.594 17.1562ZM228.344 17.8477C227.281 17.8477 226.348 17.832 225.543 17.8008C224.738 17.7695 224.043 17.707 223.457 17.6133C222.879 17.5117 222.395 17.3711 222.004 17.1914C221.621 17.0117 221.316 16.7734 221.09 16.4766C220.863 16.1719 220.703 15.8008 220.609 15.3633C220.516 14.918 220.469 14.4375 220.469 13.9219C220.469 13.2188 220.617 12.6289 220.914 12.1523C221.211 11.668 221.688 11.2773 222.344 10.9805C223 10.6758 223.852 10.457 224.898 10.3242C225.945 10.1914 227.219 10.125 228.719 10.125C230.203 10.125 231.426 10.2031 232.387 10.3594C233.355 10.5156 234.121 10.7578 234.684 11.0859C235.254 11.4062 235.652 11.8125 235.879 12.3047C236.105 12.7969 236.219 13.3828 236.219 14.0625H233.969C233.969 13.6406 233.887 13.2969 233.723 13.0312C233.566 12.7656 233.289 12.5586 232.891 12.4102C232.492 12.2539 231.953 12.1484 231.273 12.0938C230.602 12.0312 229.75 12 228.719 12C227.594 12 226.648 12.0156 225.883 12.0469C225.117 12.0781 224.5 12.1562 224.031 12.2812C223.562 12.4062 223.227 12.5977 223.023 12.8555C222.82 13.1133 222.719 13.4688 222.719 13.9219C222.719 14.1875 222.734 14.4492 222.766 14.707C222.805 14.957 222.887 15.1641 223.012 15.3281C223.137 15.4922 223.32 15.6172 223.562 15.7031C223.805 15.7891 224.133 15.8555 224.547 15.9023C224.969 15.9414 225.488 15.9648 226.105 15.9727C226.723 15.9727 227.469 15.9727 228.344 15.9727C229.406 15.9727 230.336 15.9961 231.133 16.043C231.938 16.0898 232.633 16.1719 233.219 16.2891C233.805 16.4062 234.289 16.5859 234.672 16.8281C235.055 17.0703 235.359 17.3359 235.586 17.625C235.82 17.9062 235.984 18.2422 236.078 18.6328C236.172 19.0156 236.219 19.4609 236.219 19.9688C236.219 20.4766 236.172 20.9336 236.078 21.3398C235.984 21.7383 235.82 22.0938 235.586 22.4062C235.352 22.7109 235.031 22.9766 234.625 23.2031C234.227 23.4219 233.723 23.6016 233.113 23.7422C232.504 23.875 231.773 23.9727 230.922 24.0352C230.078 24.1055 229.094 24.1406 227.969 24.1406C226.562 24.1406 225.379 24.0703 224.418 23.9297C223.465 23.7891 222.695 23.5664 222.109 23.2617C221.523 22.9492 221.102 22.5469 220.844 22.0547C220.594 21.5625 220.469 20.9609 220.469 20.25H222.719C222.719 20.7188 222.797 21.1016 222.953 21.3984C223.117 21.6875 223.398 21.9141 223.797 22.0781C224.195 22.2422 224.73 22.3555 225.402 22.418C226.082 22.4727 226.938 22.5 227.969 22.5C228.906 22.5 229.703 22.4805 230.359 22.4414C231.023 22.3945 231.578 22.3242 232.023 22.2305C232.469 22.1367 232.82 22.0234 233.078 21.8906C233.336 21.7578 233.531 21.5977 233.664 21.4102C233.797 21.2227 233.879 21.0156 233.91 20.7891C233.949 20.5547 233.969 20.2969 233.969 20.0156C233.969 19.7578 233.949 19.5312 233.91 19.3359C233.879 19.1328 233.801 18.9336 233.676 18.7383C233.551 18.5352 233.367 18.3828 233.125 18.2812C232.883 18.1797 232.551 18.0977 232.129 18.0352C231.715 17.9648 231.199 17.918 230.582 17.8945C229.965 17.8633 229.219 17.8477 228.344 17.8477ZM239.969 10.5H242.219V24H239.969V10.5ZM242.219 8.25H239.969V6H242.219V8.25ZM252.344 24L245.219 10.5H247.844L253.844 22.5L259.469 10.5H262.094L255.344 24L254.969 24.75C254.781 25.125 254.594 25.4766 254.406 25.8047C254.227 26.1406 254.02 26.4453 253.785 26.7188C253.551 27 253.273 27.25 252.953 27.4688C252.633 27.6875 252.238 27.8711 251.77 28.0195C251.309 28.1758 250.758 28.293 250.117 28.3711C249.477 28.457 248.719 28.5 247.844 28.5V26.625C248.594 26.625 249.227 26.5938 249.742 26.5312C250.258 26.4766 250.688 26.3906 251.031 26.2734C251.383 26.1641 251.664 26.0312 251.875 25.875C252.086 25.7188 252.262 25.543 252.402 25.3477C252.543 25.1523 252.66 24.9414 252.754 24.7148C252.855 24.4883 252.969 24.25 253.094 24H252.344ZM263.219 17.1562C263.219 15.7734 263.367 14.6289 263.664 13.7227C263.961 12.8164 264.438 12.0977 265.094 11.5664C265.75 11.0352 266.602 10.6641 267.648 10.4531C268.695 10.2344 269.969 10.125 271.469 10.125C272.969 10.125 274.242 10.2344 275.289 10.4531C276.336 10.6641 277.188 11.0352 277.844 11.5664C278.5 12.0977 278.977 12.8164 279.273 13.7227C279.57 14.6289 279.719 15.7734 279.719 17.1562C279.719 18.5391 279.57 19.6875 279.273 20.6016C278.977 21.5156 278.5 22.2422 277.844 22.7812C277.188 23.3203 276.336 23.7031 275.289 23.9297C274.242 24.1484 272.969 24.2578 271.469 24.2578C269.969 24.2578 268.695 24.1484 267.648 23.9297C266.602 23.7031 265.75 23.3203 265.094 22.7812C264.438 22.2422 263.961 21.5156 263.664 20.6016C263.367 19.6875 263.219 18.5391 263.219 17.1562ZM265.469 17.1562C265.469 17.9062 265.496 18.5586 265.551 19.1133C265.605 19.668 265.707 20.1445 265.855 20.543C266.012 20.9414 266.227 21.2656 266.5 21.5156C266.773 21.7656 267.133 21.9648 267.578 22.1133C268.023 22.2617 268.562 22.3633 269.195 22.418C269.836 22.4727 270.594 22.5 271.469 22.5C272.219 22.5 272.887 22.4844 273.473 22.4531C274.066 22.4141 274.582 22.332 275.02 22.207C275.465 22.082 275.844 21.9062 276.156 21.6797C276.469 21.4453 276.719 21.1289 276.906 20.7305C277.102 20.332 277.242 19.8438 277.328 19.2656C277.422 18.6797 277.469 17.9766 277.469 17.1562C277.469 16.3516 277.422 15.668 277.328 15.1055C277.242 14.5352 277.102 14.0586 276.906 13.6758C276.719 13.293 276.469 12.9922 276.156 12.7734C275.844 12.5469 275.465 12.3789 275.02 12.2695C274.582 12.1523 274.066 12.0781 273.473 12.0469C272.887 12.0156 272.219 12 271.469 12C270.719 12 270.047 12.0156 269.453 12.0469C268.867 12.0781 268.352 12.1523 267.906 12.2695C267.469 12.3789 267.094 12.5469 266.781 12.7734C266.469 12.9922 266.215 13.293 266.02 13.6758C265.832 14.0586 265.691 14.5352 265.598 15.1055C265.512 15.668 265.469 16.3516 265.469 17.1562ZM299.23 5.625C300.918 5.625 302.297 5.73047 303.367 5.94141C304.438 6.15234 305.273 6.46484 305.875 6.87891C306.484 7.28516 306.902 7.79297 307.129 8.40234C307.355 9.00391 307.469 9.70312 307.469 10.5C307.469 10.9453 307.43 11.3672 307.352 11.7656C307.273 12.1562 307.133 12.5156 306.93 12.8438C306.734 13.1719 306.469 13.4727 306.133 13.7461C305.797 14.0117 305.367 14.2422 304.844 14.4375C305.438 14.6562 305.93 14.918 306.32 15.2227C306.711 15.5273 307.016 15.8711 307.234 16.2539C307.461 16.6367 307.617 17.0547 307.703 17.5078C307.797 17.9531 307.844 18.4297 307.844 18.9375C307.844 19.5234 307.797 20.0664 307.703 20.5664C307.609 21.0586 307.445 21.5078 307.211 21.9141C306.977 22.3125 306.656 22.668 306.25 22.9805C305.852 23.2852 305.348 23.543 304.738 23.7539C304.129 23.957 303.398 24.1094 302.547 24.2109C301.703 24.3203 300.719 24.375 299.594 24.375H295.832C294.145 24.375 292.766 24.2539 291.695 24.0117C290.625 23.7773 289.785 23.4297 289.176 22.9688C288.574 22.5078 288.16 21.9414 287.934 21.2695C287.707 20.5898 287.594 19.8125 287.594 18.9375C287.594 18.4297 287.637 17.9531 287.723 17.5078C287.809 17.0547 287.965 16.6367 288.191 16.2539C288.418 15.8711 288.723 15.5273 289.105 15.2227C289.496 14.918 289.992 14.6562 290.594 14.4375C290.07 14.2422 289.637 14.0117 289.293 13.7461C288.957 13.4727 288.691 13.1719 288.496 12.8438C288.301 12.5156 288.164 12.1562 288.086 11.7656C288.008 11.3672 287.969 10.9453 287.969 10.5C287.969 9.70312 288.082 9.00391 288.309 8.40234C288.535 7.79297 288.949 7.28516 289.551 6.87891C290.16 6.46484 291 6.15234 292.07 5.94141C293.141 5.73047 294.52 5.625 296.207 5.625H299.23ZM299.594 22.5C300.469 22.5 301.223 22.4766 301.855 22.4297C302.496 22.375 303.035 22.293 303.473 22.1836C303.918 22.0664 304.277 21.918 304.551 21.7383C304.832 21.5586 305.047 21.3359 305.195 21.0703C305.352 20.8047 305.457 20.4961 305.512 20.1445C305.566 19.793 305.594 19.3906 305.594 18.9375C305.594 18.5 305.566 18.1094 305.512 17.7656C305.465 17.4141 305.363 17.1094 305.207 16.8516C305.059 16.5859 304.844 16.3594 304.562 16.1719C304.289 15.9844 303.93 15.832 303.484 15.7148C303.039 15.5977 302.496 15.5117 301.855 15.457C301.223 15.4023 300.469 15.375 299.594 15.375H295.832C294.957 15.375 294.199 15.4023 293.559 15.457C292.926 15.5117 292.387 15.5977 291.941 15.7148C291.504 15.832 291.145 15.9844 290.863 16.1719C290.59 16.3594 290.375 16.5859 290.219 16.8516C290.07 17.1094 289.969 17.4141 289.914 17.7656C289.867 18.1094 289.844 18.5 289.844 18.9375C289.844 19.3906 289.871 19.793 289.926 20.1445C289.98 20.4961 290.082 20.8047 290.23 21.0703C290.387 21.3359 290.602 21.5586 290.875 21.7383C291.148 21.918 291.508 22.0664 291.953 22.1836C292.398 22.293 292.938 22.375 293.57 22.4297C294.203 22.4766 294.957 22.5 295.832 22.5H299.594ZM299.594 13.5C300.82 13.5 301.801 13.457 302.535 13.3711C303.277 13.2773 303.844 13.1172 304.234 12.8906C304.633 12.6641 304.895 12.3594 305.02 11.9766C305.152 11.5859 305.219 11.0938 305.219 10.5C305.219 10.1094 305.191 9.76562 305.137 9.46875C305.09 9.16406 304.988 8.90234 304.832 8.68359C304.684 8.45703 304.469 8.26953 304.188 8.12109C303.914 7.97266 303.555 7.85156 303.109 7.75781C302.664 7.66406 302.121 7.59766 301.48 7.55859C300.848 7.51953 300.094 7.5 299.219 7.5H296.207C295.332 7.5 294.574 7.51953 293.934 7.55859C293.301 7.59766 292.762 7.66406 292.316 7.75781C291.879 7.85156 291.52 7.97266 291.238 8.12109C290.965 8.26953 290.75 8.45703 290.594 8.68359C290.445 8.90234 290.344 9.16406 290.289 9.46875C290.242 9.76562 290.219 10.1094 290.219 10.5C290.219 10.9062 290.246 11.2617 290.301 11.5664C290.355 11.8711 290.457 12.1367 290.605 12.3633C290.762 12.582 290.977 12.7656 291.25 12.9141C291.523 13.0625 291.883 13.1797 292.328 13.2656C292.773 13.3516 293.312 13.4141 293.945 13.4531C294.578 13.4844 295.332 13.5 296.207 13.5H299.594ZM323.605 5.625C324.98 5.625 326.137 5.71094 327.074 5.88281C328.02 6.04688 328.797 6.30078 329.406 6.64453C330.016 6.98047 330.484 7.40625 330.812 7.92188C331.141 8.4375 331.379 9.04297 331.527 9.73828C331.684 10.4336 331.773 11.2188 331.797 12.0938C331.828 12.9688 331.844 13.9375 331.844 15C331.844 16.0625 331.828 17.0312 331.797 17.9062C331.773 18.7812 331.684 19.5664 331.527 20.2617C331.379 20.957 331.141 21.5625 330.812 22.0781C330.484 22.5938 330.016 23.0234 329.406 23.3672C328.797 23.7031 328.02 23.9531 327.074 24.1172C326.137 24.2891 324.98 24.375 323.605 24.375H319.094C317.719 24.375 316.559 24.2891 315.613 24.1172C314.676 23.9531 313.902 23.7031 313.293 23.3672C312.684 23.0234 312.211 22.5938 311.875 22.0781C311.547 21.5625 311.305 20.957 311.148 20.2617C311 19.5664 310.914 18.7812 310.891 17.9062C310.867 17.0312 310.855 16.0625 310.855 15C310.855 13.9375 310.867 12.9688 310.891 12.0938C310.914 11.2188 311 10.4336 311.148 9.73828C311.305 9.04297 311.547 8.4375 311.875 7.92188C312.211 7.40625 312.684 6.98047 313.293 6.64453C313.902 6.30078 314.676 6.04688 315.613 5.88281C316.559 5.71094 317.719 5.625 319.094 5.625H323.605ZM323.605 22.5C324.605 22.5 325.445 22.4727 326.125 22.418C326.805 22.3555 327.367 22.2344 327.812 22.0547C328.258 21.875 328.602 21.6172 328.844 21.2812C329.086 20.9453 329.262 20.5 329.371 19.9453C329.48 19.3906 329.543 18.7109 329.559 17.9062C329.582 17.0938 329.594 16.125 329.594 15C329.594 13.875 329.582 12.9102 329.559 12.1055C329.543 11.293 329.48 10.6094 329.371 10.0547C329.262 9.5 329.086 9.05469 328.844 8.71875C328.602 8.38281 328.258 8.125 327.812 7.94531C327.375 7.76563 326.812 7.64844 326.125 7.59375C325.445 7.53125 324.605 7.5 323.605 7.5H319.094C318.094 7.5 317.25 7.53125 316.562 7.59375C315.883 7.64844 315.32 7.76563 314.875 7.94531C314.43 8.125 314.086 8.38281 313.844 8.71875C313.602 9.05469 313.426 9.5 313.316 10.0547C313.207 10.6094 313.145 11.293 313.129 12.1055C313.113 12.9102 313.105 13.875 313.105 15C313.105 16.125 313.113 17.0938 313.129 17.9062C313.152 18.7109 313.219 19.3906 313.328 19.9453C313.438 20.5 313.609 20.9453 313.844 21.2812C314.086 21.6172 314.43 21.875 314.875 22.0547C315.32 22.2344 315.883 22.3555 316.562 22.418C317.25 22.4727 318.094 22.5 319.094 22.5H323.605ZM334.352 10.56C334.352 9.472 334.68 8.608 335.336 7.968C335.992 7.312 336.832 6.984 337.856 6.984C338.88 6.984 339.72 7.312 340.376 7.968C341.032 8.608 341.36 9.472 341.36 10.56C341.36 11.664 341.032 12.544 340.376 13.2C339.72 13.84 338.88 14.16 337.856 14.16C336.832 14.16 335.992 13.84 335.336 13.2C334.68 12.544 334.352 11.664 334.352 10.56ZM348.368 7.248L338.648 24H336.488L346.208 7.248H348.368ZM337.856 8.328C337.312 8.328 336.88 8.52 336.56 8.904C336.256 9.272 336.104 9.824 336.104 10.56C336.104 11.296 336.256 11.856 336.56 12.24C336.88 12.624 337.312 12.816 337.856 12.816C338.4 12.816 338.832 12.624 339.152 12.24C339.472 11.84 339.632 11.28 339.632 10.56C339.632 9.824 339.472 9.272 339.152 8.904C338.832 8.52 338.4 8.328 337.856 8.328ZM343.544 20.688C343.544 19.584 343.872 18.712 344.528 18.072C345.184 17.416 346.024 17.088 347.048 17.088C348.072 17.088 348.904 17.416 349.544 18.072C350.2 18.712 350.528 19.584 350.528 20.688C350.528 21.776 350.2 22.648 349.544 23.304C348.904 23.96 348.072 24.288 347.048 24.288C346.024 24.288 345.184 23.968 344.528 23.328C343.872 22.672 343.544 21.792 343.544 20.688ZM347.024 18.456C346.48 18.456 346.048 18.648 345.728 19.032C345.408 19.4 345.248 19.952 345.248 20.688C345.248 21.408 345.408 21.96 345.728 22.344C346.048 22.712 346.48 22.896 347.024 22.896C347.568 22.896 348 22.712 348.32 22.344C348.64 21.96 348.8 21.408 348.8 20.688C348.8 19.952 348.64 19.4 348.32 19.032C348 18.648 347.568 18.456 347.024 18.456ZM361.715 10.5V18C361.715 18.8359 361.777 19.543 361.902 20.1211C362.027 20.6914 362.277 21.1523 362.652 21.5039C363.027 21.8555 363.559 22.1094 364.246 22.2656C364.934 22.4219 365.84 22.5 366.965 22.5C368.184 22.5 369.18 22.4102 369.953 22.2305C370.734 22.0508 371.348 21.7969 371.793 21.4688C372.238 21.1406 372.543 20.7461 372.707 20.2852C372.879 19.8242 372.965 19.3125 372.965 18.75V10.5H375.215V24H372.965V21.75C372.855 21.9922 372.672 22.2617 372.414 22.5586C372.156 22.8477 371.77 23.1172 371.254 23.3672C370.738 23.6172 370.07 23.8281 369.25 24C368.438 24.1719 367.426 24.2578 366.215 24.2578C365.207 24.2578 364.34 24.1953 363.613 24.0703C362.895 23.9531 362.281 23.7773 361.773 23.543C361.273 23.3008 360.871 23.0039 360.566 22.6523C360.262 22.3008 360.027 21.8945 359.863 21.4336C359.699 20.9648 359.59 20.4453 359.535 19.875C359.48 19.3047 359.453 18.6797 359.453 18L359.465 10.5H361.715ZM378.977 6H381.227V24H378.977V6ZM387.238 10.5V18C387.238 18.8359 387.301 19.543 387.426 20.1211C387.551 20.6914 387.801 21.1523 388.176 21.5039C388.551 21.8555 389.082 22.1094 389.77 22.2656C390.457 22.4219 391.363 22.5 392.488 22.5C393.707 22.5 394.703 22.4102 395.477 22.2305C396.258 22.0508 396.871 21.7969 397.316 21.4688C397.762 21.1406 398.066 20.7461 398.23 20.2852C398.402 19.8242 398.488 19.3125 398.488 18.75V10.5H400.738V24H398.488V21.75C398.379 21.9922 398.195 22.2617 397.938 22.5586C397.68 22.8477 397.293 23.1172 396.777 23.3672C396.262 23.6172 395.594 23.8281 394.773 24C393.961 24.1719 392.949 24.2578 391.738 24.2578C390.73 24.2578 389.863 24.1953 389.137 24.0703C388.418 23.9531 387.805 23.7773 387.297 23.543C386.797 23.3008 386.395 23.0039 386.09 22.6523C385.785 22.3008 385.551 21.8945 385.387 21.4336C385.223 20.9648 385.113 20.4453 385.059 19.875C385.004 19.3047 384.977 18.6797 384.977 18L384.988 10.5H387.238ZM411.625 17.8477C410.562 17.8477 409.629 17.832 408.824 17.8008C408.02 17.7695 407.324 17.707 406.738 17.6133C406.16 17.5117 405.676 17.3711 405.285 17.1914C404.902 17.0117 404.598 16.7734 404.371 16.4766C404.145 16.1719 403.984 15.8008 403.891 15.3633C403.797 14.918 403.75 14.4375 403.75 13.9219C403.75 13.2188 403.898 12.6289 404.195 12.1523C404.492 11.668 404.969 11.2773 405.625 10.9805C406.281 10.6758 407.133 10.457 408.18 10.3242C409.227 10.1914 410.5 10.125 412 10.125C413.484 10.125 414.707 10.2031 415.668 10.3594C416.637 10.5156 417.402 10.7578 417.965 11.0859C418.535 11.4062 418.934 11.8125 419.16 12.3047C419.387 12.7969 419.5 13.3828 419.5 14.0625H417.25C417.25 13.6406 417.168 13.2969 417.004 13.0312C416.848 12.7656 416.57 12.5586 416.172 12.4102C415.773 12.2539 415.234 12.1484 414.555 12.0938C413.883 12.0312 413.031 12 412 12C410.875 12 409.93 12.0156 409.164 12.0469C408.398 12.0781 407.781 12.1562 407.312 12.2812C406.844 12.4062 406.508 12.5977 406.305 12.8555C406.102 13.1133 406 13.4688 406 13.9219C406 14.1875 406.016 14.4492 406.047 14.707C406.086 14.957 406.168 15.1641 406.293 15.3281C406.418 15.4922 406.602 15.6172 406.844 15.7031C407.086 15.7891 407.414 15.8555 407.828 15.9023C408.25 15.9414 408.77 15.9648 409.387 15.9727C410.004 15.9727 410.75 15.9727 411.625 15.9727C412.688 15.9727 413.617 15.9961 414.414 16.043C415.219 16.0898 415.914 16.1719 416.5 16.2891C417.086 16.4062 417.57 16.5859 417.953 16.8281C418.336 17.0703 418.641 17.3359 418.867 17.625C419.102 17.9062 419.266 18.2422 419.359 18.6328C419.453 19.0156 419.5 19.4609 419.5 19.9688C419.5 20.4766 419.453 20.9336 419.359 21.3398C419.266 21.7383 419.102 22.0938 418.867 22.4062C418.633 22.7109 418.312 22.9766 417.906 23.2031C417.508 23.4219 417.004 23.6016 416.395 23.7422C415.785 23.875 415.055 23.9727 414.203 24.0352C413.359 24.1055 412.375 24.1406 411.25 24.1406C409.844 24.1406 408.66 24.0703 407.699 23.9297C406.746 23.7891 405.977 23.5664 405.391 23.2617C404.805 22.9492 404.383 22.5469 404.125 22.0547C403.875 21.5625 403.75 20.9609 403.75 20.25H406C406 20.7188 406.078 21.1016 406.234 21.3984C406.398 21.6875 406.68 21.9141 407.078 22.0781C407.477 22.2422 408.012 22.3555 408.684 22.418C409.363 22.4727 410.219 22.5 411.25 22.5C412.188 22.5 412.984 22.4805 413.641 22.4414C414.305 22.3945 414.859 22.3242 415.305 22.2305C415.75 22.1367 416.102 22.0234 416.359 21.8906C416.617 21.7578 416.812 21.5977 416.945 21.4102C417.078 21.2227 417.16 21.0156 417.191 20.7891C417.23 20.5547 417.25 20.2969 417.25 20.0156C417.25 19.7578 417.23 19.5312 417.191 19.3359C417.16 19.1328 417.082 18.9336 416.957 18.7383C416.832 18.5352 416.648 18.3828 416.406 18.2812C416.164 18.1797 415.832 18.0977 415.41 18.0352C414.996 17.9648 414.48 17.918 413.863 17.8945C413.246 17.8633 412.5 17.8477 411.625 17.8477ZM436 24V16.3828C436 15.5703 435.938 14.8867 435.812 14.332C435.688 13.7695 435.438 13.3164 435.062 12.9727C434.688 12.6289 434.156 12.3828 433.469 12.2344C432.781 12.0781 431.875 12 430.75 12C429.531 12 428.531 12.0898 427.75 12.2695C426.977 12.4414 426.367 12.6875 425.922 13.0078C425.477 13.3203 425.168 13.6992 424.996 14.1445C424.832 14.5898 424.75 15.0859 424.75 15.6328V24H422.5V6H424.75V12.6328C424.906 12.2656 425.129 11.9492 425.418 11.6836C425.707 11.418 426.039 11.1914 426.414 11.0039C426.797 10.8164 427.207 10.668 427.645 10.5586C428.082 10.4414 428.523 10.3516 428.969 10.2891C429.422 10.2266 429.863 10.1836 430.293 10.1602C430.73 10.1367 431.133 10.125 431.5 10.125C432.5 10.125 433.359 10.1875 434.078 10.3125C434.805 10.4297 435.418 10.6094 435.918 10.8516C436.426 11.0859 436.832 11.3789 437.137 11.7305C437.441 12.082 437.676 12.4922 437.84 12.9609C438.012 13.4219 438.125 13.9414 438.18 14.5195C438.234 15.0898 438.262 15.7109 438.262 16.3828L438.25 24H436ZM442.023 10.5H444.273V24H442.023V10.5ZM444.273 8.25H442.023V6H444.273V8.25Z" fill="#141E1F"/>
</svg>
