<svg width="405" height="30" viewBox="0 0 405 30" fill="none" xmlns="http://www.w3.org/2000/svg">
<rect y="4" width="20" height="20" rx="10" fill="#1F69F8"/>
<path d="M58.75 25C57.625 25 56.7188 24.8984 56.0312 24.6953C55.3438 24.4922 54.8125 24.1562 54.4375 23.6875C54.0625 23.2188 53.8125 22.6016 53.6875 21.8359C53.5625 21.0703 53.5 20.125 53.5 19V18.25H55.75V19C55.75 19.9375 55.8008 20.6836 55.9023 21.2383C56.0039 21.7852 56.1719 22.2031 56.4062 22.4922C56.6406 22.7812 56.9492 22.9688 57.332 23.0547C57.7148 23.1328 58.1875 23.1719 58.75 23.1719H64C64.75 23.1719 65.3672 23.1055 65.8516 22.9727C66.3359 22.832 66.7188 22.6211 67 22.3398C67.2812 22.0586 67.4766 21.7031 67.5859 21.2734C67.6953 20.8438 67.75 20.3359 67.75 19.75V7H70V19.75C70 20.6875 69.8984 21.4883 69.6953 22.1523C69.4922 22.8164 69.1562 23.3594 68.6875 23.7812C68.2188 24.2031 67.6016 24.5117 66.8359 24.707C66.0703 24.9023 65.125 25 64 25H58.75ZM87.0508 23.1484C87.0273 23.2422 86.8516 23.4766 86.5234 23.8516C86.2891 24.1328 85.9766 24.3828 85.5859 24.6016C85.1953 24.8125 84.6719 24.9766 84.0156 25.0938C83.3672 25.2188 82.5117 25.2812 81.4492 25.2812C80.0352 25.2812 78.8281 25.207 77.8281 25.0586C76.8281 24.918 76.0117 24.6992 75.3789 24.4023C74.7461 24.0977 74.2812 23.7109 73.9844 23.2422C73.6953 22.7734 73.5508 22.2148 73.5508 21.5664C73.5508 20.8867 73.6289 20.3125 73.7852 19.8438C73.9492 19.3672 74.1836 18.9688 74.4883 18.6484C74.8008 18.3281 75.1758 18.0781 75.6133 17.8984C76.0508 17.7188 76.5469 17.582 77.1016 17.4883C77.6641 17.3945 78.2773 17.3359 78.9414 17.3125C79.6055 17.2891 80.3125 17.2773 81.0625 17.2773C82.1328 17.2773 83.0273 17.3242 83.7461 17.418C84.4648 17.5039 85.0508 17.6172 85.5039 17.7578C85.9648 17.8906 86.3125 18.0352 86.5469 18.1914C86.7812 18.3477 86.9492 18.4922 87.0508 18.625C87.0508 17.75 87.0117 17.0039 86.9336 16.3867C86.8633 15.7695 86.7422 15.2539 86.5703 14.8398C86.4062 14.4258 86.1914 14.0977 85.9258 13.8555C85.6602 13.6055 85.332 13.418 84.9414 13.293C84.5586 13.168 84.1094 13.0898 83.5938 13.0586C83.0781 13.0195 82.4883 13 81.8242 13C80.793 13 79.9375 13.0273 79.2578 13.082C78.5781 13.1289 78.0391 13.2266 77.6406 13.375C77.2422 13.5234 76.9609 13.7305 76.7969 13.9961C76.6328 14.2539 76.5508 14.5938 76.5508 15.0156H74.3008C74.3008 14.3047 74.4258 13.7031 74.6758 13.2109C74.9336 12.7188 75.3555 12.3203 75.9414 12.0156C76.5352 11.7031 77.3125 11.4766 78.2734 11.3359C79.2344 11.1953 80.418 11.125 81.8242 11.125C83.1992 11.125 84.3633 11.2383 85.3164 11.4648C86.2695 11.6914 87.0391 12.0898 87.625 12.6602C88.2188 13.2305 88.6445 14 88.9023 14.9688C89.168 15.9297 89.3008 17.1484 89.3008 18.625V25H87.0508V23.1484ZM81.8242 23.5C82.8164 23.5 83.6445 23.4531 84.3086 23.3594C84.9805 23.2656 85.5195 23.125 85.9258 22.9375C86.332 22.75 86.6211 22.5156 86.793 22.2344C86.9648 21.9531 87.0508 21.625 87.0508 21.25C87.0508 20.875 86.9492 20.5586 86.7461 20.3008C86.5508 20.0352 86.2188 19.8203 85.75 19.6562C85.2891 19.4922 84.6758 19.375 83.9102 19.3047C83.1445 19.2266 82.1992 19.1875 81.0742 19.1875C79.9492 19.1875 79.0391 19.207 78.3438 19.2461C77.6562 19.2852 77.125 19.375 76.75 19.5156C76.375 19.6562 76.1211 19.8633 75.9883 20.1367C75.8633 20.4102 75.8008 20.7812 75.8008 21.25C75.8008 21.7188 75.8672 22.1016 76 22.3984C76.1406 22.6875 76.4219 22.9141 76.8438 23.0781C77.2656 23.2422 77.8711 23.3555 78.6602 23.418C79.457 23.4727 80.5117 23.5 81.8242 23.5ZM105.812 25V17.3828C105.812 16.5703 105.75 15.8867 105.625 15.332C105.5 14.7695 105.25 14.3164 104.875 13.9727C104.5 13.6289 103.969 13.3828 103.281 13.2344C102.594 13.0781 101.688 13 100.562 13C99.3438 13 98.3438 13.0898 97.5625 13.2695C96.7891 13.4414 96.1797 13.6875 95.7344 14.0078C95.2891 14.3203 94.9805 14.6992 94.8086 15.1445C94.6445 15.5898 94.5625 16.0859 94.5625 16.6328V25H92.3125V7H94.5625V13.6328C94.7188 13.2656 94.9414 12.9492 95.2305 12.6836C95.5195 12.418 95.8516 12.1914 96.2266 12.0039C96.6094 11.8164 97.0195 11.668 97.457 11.5586C97.8945 11.4414 98.3359 11.3516 98.7812 11.2891C99.2344 11.2266 99.6758 11.1836 100.105 11.1602C100.543 11.1367 100.945 11.125 101.312 11.125C102.312 11.125 103.172 11.1875 103.891 11.3125C104.617 11.4297 105.23 11.6094 105.73 11.8516C106.238 12.0859 106.645 12.3789 106.949 12.7305C107.254 13.082 107.488 13.4922 107.652 13.9609C107.824 14.4219 107.938 14.9414 107.992 15.5195C108.047 16.0898 108.074 16.7109 108.074 17.3828L108.062 25H105.812ZM110.711 18.1562C110.711 16.7734 110.859 15.6289 111.156 14.7227C111.453 13.8164 111.93 13.0977 112.586 12.5664C113.242 12.0352 114.094 11.6641 115.141 11.4531C116.188 11.2344 117.461 11.125 118.961 11.125C120.461 11.125 121.734 11.2344 122.781 11.4531C123.828 11.6641 124.68 12.0352 125.336 12.5664C125.992 13.0977 126.469 13.8164 126.766 14.7227C127.062 15.6289 127.211 16.7734 127.211 18.1562C127.211 19.5391 127.062 20.6875 126.766 21.6016C126.469 22.5156 125.992 23.2422 125.336 23.7812C124.68 24.3203 123.828 24.7031 122.781 24.9297C121.734 25.1484 120.461 25.2578 118.961 25.2578C117.461 25.2578 116.188 25.1484 115.141 24.9297C114.094 24.7031 113.242 24.3203 112.586 23.7812C111.93 23.2422 111.453 22.5156 111.156 21.6016C110.859 20.6875 110.711 19.5391 110.711 18.1562ZM112.961 18.1562C112.961 18.9062 112.988 19.5586 113.043 20.1133C113.098 20.668 113.199 21.1445 113.348 21.543C113.504 21.9414 113.719 22.2656 113.992 22.5156C114.266 22.7656 114.625 22.9648 115.07 23.1133C115.516 23.2617 116.055 23.3633 116.688 23.418C117.328 23.4727 118.086 23.5 118.961 23.5C119.711 23.5 120.379 23.4844 120.965 23.4531C121.559 23.4141 122.074 23.332 122.512 23.207C122.957 23.082 123.336 22.9062 123.648 22.6797C123.961 22.4453 124.211 22.1289 124.398 21.7305C124.594 21.332 124.734 20.8438 124.82 20.2656C124.914 19.6797 124.961 18.9766 124.961 18.1562C124.961 17.3516 124.914 16.668 124.82 16.1055C124.734 15.5352 124.594 15.0586 124.398 14.6758C124.211 14.293 123.961 13.9922 123.648 13.7734C123.336 13.5469 122.957 13.3789 122.512 13.2695C122.074 13.1523 121.559 13.0781 120.965 13.0469C120.379 13.0156 119.711 13 118.961 13C118.211 13 117.539 13.0156 116.945 13.0469C116.359 13.0781 115.844 13.1523 115.398 13.2695C114.961 13.3789 114.586 13.5469 114.273 13.7734C113.961 13.9922 113.707 14.293 113.512 14.6758C113.324 15.0586 113.184 15.5352 113.09 16.1055C113.004 16.668 112.961 17.3516 112.961 18.1562ZM143.336 25V17.5C143.336 16.6641 143.273 15.9609 143.148 15.3906C143.023 14.8125 142.773 14.3477 142.398 13.9961C142.023 13.6445 141.492 13.3906 140.805 13.2344C140.117 13.0781 139.211 13 138.086 13C136.867 13 135.867 13.0898 135.086 13.2695C134.312 13.4492 133.703 13.7031 133.258 14.0312C132.812 14.3594 132.504 14.7539 132.332 15.2148C132.168 15.6758 132.086 16.1875 132.086 16.75V25H129.836V11.5H132.086V13.75C132.25 13.3672 132.484 13.0391 132.789 12.7656C133.094 12.4844 133.438 12.2461 133.82 12.0508C134.203 11.8555 134.617 11.6992 135.062 11.582C135.508 11.457 135.953 11.3633 136.398 11.3008C136.844 11.2305 137.273 11.1836 137.688 11.1602C138.109 11.1367 138.492 11.125 138.836 11.125C139.836 11.125 140.695 11.1875 141.414 11.3125C142.141 11.4375 142.754 11.6211 143.254 11.8633C143.762 12.1055 144.168 12.4062 144.473 12.7656C144.777 13.125 145.012 13.543 145.176 14.0195C145.348 14.4883 145.461 15.0156 145.516 15.6016C145.57 16.1797 145.598 16.8125 145.598 17.5L145.586 25H143.336ZM162.109 25.2578C161.031 25.2578 160.133 25.1836 159.414 25.0352C158.703 24.8945 158.121 24.7422 157.668 24.5781C157.215 24.4062 156.871 24.1406 156.637 23.7812C156.402 23.4141 156.227 23.1289 156.109 22.9258V25H153.859V7H156.109V12.7773C156.211 12.6133 156.379 12.4375 156.613 12.25C156.855 12.0547 157.203 11.875 157.656 11.7109C158.117 11.5391 158.707 11.3984 159.426 11.2891C160.145 11.1797 161.039 11.125 162.109 11.125C163.609 11.125 164.883 11.2383 165.93 11.4648C166.977 11.6914 167.828 12.0781 168.484 12.625C169.141 13.1719 169.617 13.9062 169.914 14.8281C170.211 15.7422 170.359 16.8906 170.359 18.2734C170.359 19.6328 170.211 20.7617 169.914 21.6602C169.617 22.5586 169.141 23.2734 168.484 23.8047C167.828 24.3359 166.977 24.7109 165.93 24.9297C164.883 25.1484 163.609 25.2578 162.109 25.2578ZM162.109 23.5C162.984 23.5 163.738 23.4727 164.371 23.418C165.012 23.3633 165.555 23.2656 166 23.125C166.445 22.9844 166.805 22.7891 167.078 22.5391C167.359 22.2891 167.574 21.9727 167.723 21.5898C167.879 21.1992 167.98 20.7344 168.027 20.1953C168.082 19.6484 168.109 19.0078 168.109 18.2734C168.109 17.5391 168.082 16.8984 168.027 16.3516C167.98 15.8047 167.879 15.3398 167.723 14.957C167.574 14.5664 167.359 14.2461 167.078 13.9961C166.805 13.7383 166.445 13.5391 166 13.3984C165.555 13.25 165.012 13.1484 164.371 13.0938C163.738 13.0391 162.984 13.0117 162.109 13.0117C161.359 13.0117 160.691 13.0312 160.105 13.0703C159.52 13.1016 159.004 13.1797 158.559 13.3047C158.113 13.4297 157.734 13.6094 157.422 13.8438C157.117 14.0781 156.867 14.3906 156.672 14.7812C156.477 15.1719 156.332 15.6562 156.238 16.2344C156.152 16.8125 156.109 17.5039 156.109 18.3086C156.109 19.1055 156.152 19.7891 156.238 20.3594C156.332 20.9219 156.477 21.3945 156.672 21.7773C156.867 22.1602 157.117 22.4688 157.422 22.7031C157.734 22.9297 158.113 23.1016 158.559 23.2188C159.004 23.3359 159.52 23.4141 160.105 23.4531C160.691 23.4844 161.359 23.5 162.109 23.5ZM172.609 18.1562C172.609 16.7734 172.758 15.6289 173.055 14.7227C173.352 13.8164 173.828 13.0977 174.484 12.5664C175.141 12.0352 175.992 11.6641 177.039 11.4531C178.086 11.2344 179.359 11.125 180.859 11.125C182.359 11.125 183.633 11.2344 184.68 11.4531C185.727 11.6641 186.578 12.0352 187.234 12.5664C187.891 13.0977 188.367 13.8164 188.664 14.7227C188.961 15.6289 189.109 16.7734 189.109 18.1562C189.109 19.5391 188.961 20.6875 188.664 21.6016C188.367 22.5156 187.891 23.2422 187.234 23.7812C186.578 24.3203 185.727 24.7031 184.68 24.9297C183.633 25.1484 182.359 25.2578 180.859 25.2578C179.359 25.2578 178.086 25.1484 177.039 24.9297C175.992 24.7031 175.141 24.3203 174.484 23.7812C173.828 23.2422 173.352 22.5156 173.055 21.6016C172.758 20.6875 172.609 19.5391 172.609 18.1562ZM174.859 18.1562C174.859 18.9062 174.887 19.5586 174.941 20.1133C174.996 20.668 175.098 21.1445 175.246 21.543C175.402 21.9414 175.617 22.2656 175.891 22.5156C176.164 22.7656 176.523 22.9648 176.969 23.1133C177.414 23.2617 177.953 23.3633 178.586 23.418C179.227 23.4727 179.984 23.5 180.859 23.5C181.609 23.5 182.277 23.4844 182.863 23.4531C183.457 23.4141 183.973 23.332 184.41 23.207C184.855 23.082 185.234 22.9062 185.547 22.6797C185.859 22.4453 186.109 22.1289 186.297 21.7305C186.492 21.332 186.633 20.8438 186.719 20.2656C186.812 19.6797 186.859 18.9766 186.859 18.1562C186.859 17.3516 186.812 16.668 186.719 16.1055C186.633 15.5352 186.492 15.0586 186.297 14.6758C186.109 14.293 185.859 13.9922 185.547 13.7734C185.234 13.5469 184.855 13.3789 184.41 13.2695C183.973 13.1523 183.457 13.0781 182.863 13.0469C182.277 13.0156 181.609 13 180.859 13C180.109 13 179.438 13.0156 178.844 13.0469C178.258 13.0781 177.742 13.1523 177.297 13.2695C176.859 13.3789 176.484 13.5469 176.172 13.7734C175.859 13.9922 175.605 14.293 175.41 14.6758C175.223 15.0586 175.082 15.5352 174.988 16.1055C174.902 16.668 174.859 17.3516 174.859 18.1562ZM192.484 11.5H205.984V13.375L194.711 23.3242H205.984V25H191.734V23.125L203.172 13.1523H192.484V11.5ZM208.609 18.1562C208.609 16.7734 208.758 15.6289 209.055 14.7227C209.352 13.8164 209.828 13.0977 210.484 12.5664C211.141 12.0352 211.992 11.6641 213.039 11.4531C214.086 11.2344 215.359 11.125 216.859 11.125C218.359 11.125 219.633 11.2344 220.68 11.4531C221.727 11.6641 222.578 12.0352 223.234 12.5664C223.891 13.0977 224.367 13.8164 224.664 14.7227C224.961 15.6289 225.109 16.7734 225.109 18.1562C225.109 19.5391 224.961 20.6875 224.664 21.6016C224.367 22.5156 223.891 23.2422 223.234 23.7812C222.578 24.3203 221.727 24.7031 220.68 24.9297C219.633 25.1484 218.359 25.2578 216.859 25.2578C215.359 25.2578 214.086 25.1484 213.039 24.9297C211.992 24.7031 211.141 24.3203 210.484 23.7812C209.828 23.2422 209.352 22.5156 209.055 21.6016C208.758 20.6875 208.609 19.5391 208.609 18.1562ZM210.859 18.1562C210.859 18.9062 210.887 19.5586 210.941 20.1133C210.996 20.668 211.098 21.1445 211.246 21.543C211.402 21.9414 211.617 22.2656 211.891 22.5156C212.164 22.7656 212.523 22.9648 212.969 23.1133C213.414 23.2617 213.953 23.3633 214.586 23.418C215.227 23.4727 215.984 23.5 216.859 23.5C217.609 23.5 218.277 23.4844 218.863 23.4531C219.457 23.4141 219.973 23.332 220.41 23.207C220.855 23.082 221.234 22.9062 221.547 22.6797C221.859 22.4453 222.109 22.1289 222.297 21.7305C222.492 21.332 222.633 20.8438 222.719 20.2656C222.812 19.6797 222.859 18.9766 222.859 18.1562C222.859 17.3516 222.812 16.668 222.719 16.1055C222.633 15.5352 222.492 15.0586 222.297 14.6758C222.109 14.293 221.859 13.9922 221.547 13.7734C221.234 13.5469 220.855 13.3789 220.41 13.2695C219.973 13.1523 219.457 13.0781 218.863 13.0469C218.277 13.0156 217.609 13 216.859 13C216.109 13 215.438 13.0156 214.844 13.0469C214.258 13.0781 213.742 13.1523 213.297 13.2695C212.859 13.3789 212.484 13.5469 212.172 13.7734C211.859 13.9922 211.605 14.293 211.41 14.6758C211.223 15.0586 211.082 15.5352 210.988 16.1055C210.902 16.668 210.859 17.3516 210.859 18.1562ZM239.359 15.8945C239.359 15.332 239.316 14.8672 239.23 14.5C239.152 14.125 238.961 13.8281 238.656 13.6094C238.352 13.3828 237.898 13.2266 237.297 13.1406C236.703 13.0469 235.891 13 234.859 13C233.852 13 233.031 13.0898 232.398 13.2695C231.766 13.4414 231.27 13.6875 230.91 14.0078C230.551 14.3281 230.305 14.7109 230.172 15.1562C230.047 15.6016 229.984 16.0977 229.984 16.6445V25H227.734V11.5H229.984V13.6445C230.062 13.4023 230.207 13.1367 230.418 12.8477C230.629 12.5508 230.949 12.2773 231.379 12.0273C231.809 11.7695 232.363 11.5547 233.043 11.3828C233.73 11.2109 234.586 11.125 235.609 11.125C236.781 11.125 237.734 11.2305 238.469 11.4414C239.203 11.6445 239.773 11.9492 240.18 12.3555C240.594 12.7539 240.871 13.25 241.012 13.8438C241.16 14.4375 241.234 15.1211 241.234 15.8945H239.359ZM243.484 11.5H245.734V25H243.484V11.5ZM245.734 9.25H243.484V7H245.734V9.25ZM262.984 25V17.5C262.984 16.6641 262.922 15.9609 262.797 15.3906C262.672 14.8125 262.422 14.3477 262.047 13.9961C261.672 13.6445 261.141 13.3906 260.453 13.2344C259.766 13.0781 258.859 13 257.734 13C256.516 13 255.516 13.0898 254.734 13.2695C253.961 13.4492 253.352 13.7031 252.906 14.0312C252.461 14.3594 252.152 14.7539 251.98 15.2148C251.816 15.6758 251.734 16.1875 251.734 16.75V25H249.484V11.5H251.734V13.75C251.898 13.3672 252.133 13.0391 252.438 12.7656C252.742 12.4844 253.086 12.2461 253.469 12.0508C253.852 11.8555 254.266 11.6992 254.711 11.582C255.156 11.457 255.602 11.3633 256.047 11.3008C256.492 11.2305 256.922 11.1836 257.336 11.1602C257.758 11.1367 258.141 11.125 258.484 11.125C259.484 11.125 260.344 11.1875 261.062 11.3125C261.789 11.4375 262.402 11.6211 262.902 11.8633C263.41 12.1055 263.816 12.4062 264.121 12.7656C264.426 13.125 264.66 13.543 264.824 14.0195C264.996 14.4883 265.109 15.0156 265.164 15.6016C265.219 16.1797 265.246 16.8125 265.246 17.5L265.234 25H262.984ZM269.008 11.5H271.258V25H269.008V11.5ZM271.258 9.25H269.008V7H271.258V9.25ZM288.133 25.2578C286.633 25.2578 285.359 25.1562 284.312 24.9531C283.266 24.7422 282.414 24.3828 281.758 23.875C281.102 23.3672 280.625 22.6875 280.328 21.8359C280.031 20.9844 279.883 19.9141 279.883 18.625C279.883 17.1484 280.031 15.9297 280.328 14.9688C280.625 14 281.102 13.2305 281.758 12.6602C282.414 12.0898 283.266 11.6914 284.312 11.4648C285.359 11.2383 286.633 11.125 288.133 11.125C289.203 11.125 290.129 11.2031 290.91 11.3594C291.699 11.5156 292.371 11.7422 292.926 12.0391C293.488 12.3359 293.941 12.6953 294.285 13.1172C294.637 13.5391 294.91 13.9844 295.105 14.4531C295.309 14.9141 295.445 15.457 295.516 16.082C295.594 16.707 295.633 17.3672 295.633 18.0625L295.445 18.8125H282.133C282.133 19.8438 282.234 20.6914 282.438 21.3555C282.641 22.0117 282.977 22.4922 283.445 22.7969C283.914 23.1016 284.531 23.2969 285.297 23.3828C286.062 23.4609 287.008 23.5 288.133 23.5C289.164 23.5 290.016 23.4727 290.688 23.418C291.367 23.3555 291.906 23.2422 292.305 23.0781C292.703 22.9141 292.98 22.6875 293.137 22.3984C293.301 22.1016 293.383 21.7188 293.383 21.25H295.633C295.633 21.9766 295.504 22.5977 295.246 23.1133C294.996 23.6211 294.578 24.0352 293.992 24.3555C293.406 24.668 292.633 24.8945 291.672 25.0352C290.719 25.1836 289.539 25.2578 288.133 25.2578ZM288.133 13C287.383 13 286.711 13.0156 286.117 13.0469C285.531 13.0781 285.016 13.1484 284.57 13.2578C284.133 13.3594 283.758 13.5117 283.445 13.7148C283.133 13.9102 282.879 14.1445 282.684 14.418C282.496 14.6836 282.355 15.0625 282.262 15.5547C282.176 16.0391 282.133 16.625 282.133 17.3125H293.383C293.383 16.3984 293.285 15.6836 293.09 15.168C292.895 14.6445 292.586 14.2148 292.164 13.8789C291.742 13.543 291.199 13.3125 290.535 13.1875C289.871 13.0625 289.07 13 288.133 13ZM306.508 13C305.633 13 304.875 13.0273 304.234 13.082C303.602 13.1367 303.062 13.2344 302.617 13.375C302.172 13.5156 301.809 13.7109 301.527 13.9609C301.254 14.2109 301.039 14.5312 300.883 14.9219C300.734 15.3125 300.633 15.7852 300.578 16.3398C300.531 16.8867 300.508 17.5312 300.508 18.2734C300.508 19.0078 300.531 19.6484 300.578 20.1953C300.633 20.7344 300.734 21.1992 300.883 21.5898C301.039 21.9727 301.254 22.2891 301.527 22.5391C301.809 22.7891 302.172 22.9844 302.617 23.125C303.062 23.2656 303.602 23.3633 304.234 23.418C304.875 23.4727 305.633 23.5 306.508 23.5C307.258 23.5 307.926 23.4844 308.512 23.4531C309.098 23.4141 309.613 23.3359 310.059 23.2188C310.504 23.0938 310.879 22.918 311.184 22.6914C311.496 22.457 311.75 22.1484 311.945 21.7656C312.141 21.375 312.281 20.8945 312.367 20.3242C312.461 19.7461 312.508 19.0508 312.508 18.2383C312.508 17.4258 312.461 16.7305 312.367 16.1523C312.281 15.5742 312.141 15.0938 311.945 14.7109C311.75 14.3203 311.496 14.0117 311.184 13.7852C310.879 13.5586 310.504 13.3867 310.059 13.2695C309.613 13.1523 309.098 13.0781 308.512 13.0469C307.926 13.0156 307.258 13 306.508 13ZM314.758 23.125C314.758 24.4375 314.609 25.5273 314.312 26.3945C314.016 27.2617 313.539 27.9609 312.883 28.4922C312.227 29.0312 311.375 29.4062 310.328 29.6172C309.281 29.8281 308.008 29.9336 306.508 29.9336C305.102 29.9336 303.918 29.8711 302.957 29.7461C302.004 29.6211 301.234 29.4219 300.648 29.1484C300.062 28.8828 299.641 28.5352 299.383 28.1055C299.133 27.6836 299.008 27.168 299.008 26.5586H301.258C301.258 26.8633 301.336 27.1133 301.492 27.3086C301.656 27.5039 301.938 27.6562 302.336 27.7656C302.734 27.875 303.27 27.9492 303.941 27.9883C304.621 28.0352 305.477 28.0586 306.508 28.0586C307.633 28.0586 308.578 28.0156 309.344 27.9297C310.109 27.8516 310.727 27.6602 311.195 27.3555C311.664 27.0508 312 26.5898 312.203 25.9727C312.406 25.3555 312.508 24.5312 312.508 23.5C312.398 23.6875 312.223 23.8906 311.98 24.1094C311.746 24.3281 311.398 24.5312 310.938 24.7188C310.484 24.9062 309.898 25.0625 309.18 25.1875C308.461 25.3125 307.57 25.375 306.508 25.375C305.008 25.375 303.734 25.2617 302.688 25.0352C301.641 24.8164 300.789 24.4375 300.133 23.8984C299.477 23.3594 299 22.6328 298.703 21.7188C298.406 20.8047 298.258 19.6562 298.258 18.2734C298.258 16.8672 298.406 15.7031 298.703 14.7812C299 13.8594 299.477 13.1289 300.133 12.5898C300.789 12.0508 301.641 11.6719 302.688 11.4531C303.734 11.2344 305.008 11.125 306.508 11.125C307.57 11.125 308.461 11.1797 309.18 11.2891C309.898 11.3984 310.484 11.5352 310.938 11.6992C311.398 11.8633 311.746 12.043 311.98 12.2383C312.223 12.4258 312.398 12.5977 312.508 12.7539V11.5H314.758V23.125ZM331.199 23.1484C331.176 23.2422 331 23.4766 330.672 23.8516C330.438 24.1328 330.125 24.3828 329.734 24.6016C329.344 24.8125 328.82 24.9766 328.164 25.0938C327.516 25.2188 326.66 25.2812 325.598 25.2812C324.184 25.2812 322.977 25.207 321.977 25.0586C320.977 24.918 320.16 24.6992 319.527 24.4023C318.895 24.0977 318.43 23.7109 318.133 23.2422C317.844 22.7734 317.699 22.2148 317.699 21.5664C317.699 20.8867 317.777 20.3125 317.934 19.8438C318.098 19.3672 318.332 18.9688 318.637 18.6484C318.949 18.3281 319.324 18.0781 319.762 17.8984C320.199 17.7188 320.695 17.582 321.25 17.4883C321.812 17.3945 322.426 17.3359 323.09 17.3125C323.754 17.2891 324.461 17.2773 325.211 17.2773C326.281 17.2773 327.176 17.3242 327.895 17.418C328.613 17.5039 329.199 17.6172 329.652 17.7578C330.113 17.8906 330.461 18.0352 330.695 18.1914C330.93 18.3477 331.098 18.4922 331.199 18.625C331.199 17.75 331.16 17.0039 331.082 16.3867C331.012 15.7695 330.891 15.2539 330.719 14.8398C330.555 14.4258 330.34 14.0977 330.074 13.8555C329.809 13.6055 329.48 13.418 329.09 13.293C328.707 13.168 328.258 13.0898 327.742 13.0586C327.227 13.0195 326.637 13 325.973 13C324.941 13 324.086 13.0273 323.406 13.082C322.727 13.1289 322.188 13.2266 321.789 13.375C321.391 13.5234 321.109 13.7305 320.945 13.9961C320.781 14.2539 320.699 14.5938 320.699 15.0156H318.449C318.449 14.3047 318.574 13.7031 318.824 13.2109C319.082 12.7188 319.504 12.3203 320.09 12.0156C320.684 11.7031 321.461 11.4766 322.422 11.3359C323.383 11.1953 324.566 11.125 325.973 11.125C327.348 11.125 328.512 11.2383 329.465 11.4648C330.418 11.6914 331.188 12.0898 331.773 12.6602C332.367 13.2305 332.793 14 333.051 14.9688C333.316 15.9297 333.449 17.1484 333.449 18.625V25H331.199V23.1484ZM325.973 23.5C326.965 23.5 327.793 23.4531 328.457 23.3594C329.129 23.2656 329.668 23.125 330.074 22.9375C330.48 22.75 330.77 22.5156 330.941 22.2344C331.113 21.9531 331.199 21.625 331.199 21.25C331.199 20.875 331.098 20.5586 330.895 20.3008C330.699 20.0352 330.367 19.8203 329.898 19.6562C329.438 19.4922 328.824 19.375 328.059 19.3047C327.293 19.2266 326.348 19.1875 325.223 19.1875C324.098 19.1875 323.188 19.207 322.492 19.2461C321.805 19.2852 321.273 19.375 320.898 19.5156C320.523 19.6562 320.27 19.8633 320.137 20.1367C320.012 20.4102 319.949 20.7812 319.949 21.25C319.949 21.7188 320.016 22.1016 320.148 22.3984C320.289 22.6875 320.57 22.9141 320.992 23.0781C321.414 23.2422 322.02 23.3555 322.809 23.418C323.605 23.4727 324.66 23.5 325.973 23.5ZM337.211 7H339.461V25H337.211V7ZM343.961 7H346.211V25H343.961V7ZM363.402 23.1484C363.379 23.2422 363.203 23.4766 362.875 23.8516C362.641 24.1328 362.328 24.3828 361.938 24.6016C361.547 24.8125 361.023 24.9766 360.367 25.0938C359.719 25.2188 358.863 25.2812 357.801 25.2812C356.387 25.2812 355.18 25.207 354.18 25.0586C353.18 24.918 352.363 24.6992 351.73 24.4023C351.098 24.0977 350.633 23.7109 350.336 23.2422C350.047 22.7734 349.902 22.2148 349.902 21.5664C349.902 20.8867 349.98 20.3125 350.137 19.8438C350.301 19.3672 350.535 18.9688 350.84 18.6484C351.152 18.3281 351.527 18.0781 351.965 17.8984C352.402 17.7188 352.898 17.582 353.453 17.4883C354.016 17.3945 354.629 17.3359 355.293 17.3125C355.957 17.2891 356.664 17.2773 357.414 17.2773C358.484 17.2773 359.379 17.3242 360.098 17.418C360.816 17.5039 361.402 17.6172 361.855 17.7578C362.316 17.8906 362.664 18.0352 362.898 18.1914C363.133 18.3477 363.301 18.4922 363.402 18.625C363.402 17.75 363.363 17.0039 363.285 16.3867C363.215 15.7695 363.094 15.2539 362.922 14.8398C362.758 14.4258 362.543 14.0977 362.277 13.8555C362.012 13.6055 361.684 13.418 361.293 13.293C360.91 13.168 360.461 13.0898 359.945 13.0586C359.43 13.0195 358.84 13 358.176 13C357.145 13 356.289 13.0273 355.609 13.082C354.93 13.1289 354.391 13.2266 353.992 13.375C353.594 13.5234 353.312 13.7305 353.148 13.9961C352.984 14.2539 352.902 14.5938 352.902 15.0156H350.652C350.652 14.3047 350.777 13.7031 351.027 13.2109C351.285 12.7188 351.707 12.3203 352.293 12.0156C352.887 11.7031 353.664 11.4766 354.625 11.3359C355.586 11.1953 356.77 11.125 358.176 11.125C359.551 11.125 360.715 11.2383 361.668 11.4648C362.621 11.6914 363.391 12.0898 363.977 12.6602C364.57 13.2305 364.996 14 365.254 14.9688C365.52 15.9297 365.652 17.1484 365.652 18.625V25H363.402V23.1484ZM358.176 23.5C359.168 23.5 359.996 23.4531 360.66 23.3594C361.332 23.2656 361.871 23.125 362.277 22.9375C362.684 22.75 362.973 22.5156 363.145 22.2344C363.316 21.9531 363.402 21.625 363.402 21.25C363.402 20.875 363.301 20.5586 363.098 20.3008C362.902 20.0352 362.57 19.8203 362.102 19.6562C361.641 19.4922 361.027 19.375 360.262 19.3047C359.496 19.2266 358.551 19.1875 357.426 19.1875C356.301 19.1875 355.391 19.207 354.695 19.2461C354.008 19.2852 353.477 19.375 353.102 19.5156C352.727 19.6562 352.473 19.8633 352.34 20.1367C352.215 20.4102 352.152 20.7812 352.152 21.25C352.152 21.7188 352.219 22.1016 352.352 22.3984C352.492 22.6875 352.773 22.9141 353.195 23.0781C353.617 23.2422 354.223 23.3555 355.012 23.418C355.809 23.4727 356.863 23.5 358.176 23.5ZM376.539 18.8477C375.477 18.8477 374.543 18.832 373.738 18.8008C372.934 18.7695 372.238 18.707 371.652 18.6133C371.074 18.5117 370.59 18.3711 370.199 18.1914C369.816 18.0117 369.512 17.7734 369.285 17.4766C369.059 17.1719 368.898 16.8008 368.805 16.3633C368.711 15.918 368.664 15.4375 368.664 14.9219C368.664 14.2188 368.812 13.6289 369.109 13.1523C369.406 12.668 369.883 12.2773 370.539 11.9805C371.195 11.6758 372.047 11.457 373.094 11.3242C374.141 11.1914 375.414 11.125 376.914 11.125C378.398 11.125 379.621 11.2031 380.582 11.3594C381.551 11.5156 382.316 11.7578 382.879 12.0859C383.449 12.4062 383.848 12.8125 384.074 13.3047C384.301 13.7969 384.414 14.3828 384.414 15.0625H382.164C382.164 14.6406 382.082 14.2969 381.918 14.0312C381.762 13.7656 381.484 13.5586 381.086 13.4102C380.688 13.2539 380.148 13.1484 379.469 13.0938C378.797 13.0312 377.945 13 376.914 13C375.789 13 374.844 13.0156 374.078 13.0469C373.312 13.0781 372.695 13.1562 372.227 13.2812C371.758 13.4062 371.422 13.5977 371.219 13.8555C371.016 14.1133 370.914 14.4688 370.914 14.9219C370.914 15.1875 370.93 15.4492 370.961 15.707C371 15.957 371.082 16.1641 371.207 16.3281C371.332 16.4922 371.516 16.6172 371.758 16.7031C372 16.7891 372.328 16.8555 372.742 16.9023C373.164 16.9414 373.684 16.9648 374.301 16.9727C374.918 16.9727 375.664 16.9727 376.539 16.9727C377.602 16.9727 378.531 16.9961 379.328 17.043C380.133 17.0898 380.828 17.1719 381.414 17.2891C382 17.4062 382.484 17.5859 382.867 17.8281C383.25 18.0703 383.555 18.3359 383.781 18.625C384.016 18.9062 384.18 19.2422 384.273 19.6328C384.367 20.0156 384.414 20.4609 384.414 20.9688C384.414 21.4766 384.367 21.9336 384.273 22.3398C384.18 22.7383 384.016 23.0938 383.781 23.4062C383.547 23.7109 383.227 23.9766 382.82 24.2031C382.422 24.4219 381.918 24.6016 381.309 24.7422C380.699 24.875 379.969 24.9727 379.117 25.0352C378.273 25.1055 377.289 25.1406 376.164 25.1406C374.758 25.1406 373.574 25.0703 372.613 24.9297C371.66 24.7891 370.891 24.5664 370.305 24.2617C369.719 23.9492 369.297 23.5469 369.039 23.0547C368.789 22.5625 368.664 21.9609 368.664 21.25H370.914C370.914 21.7188 370.992 22.1016 371.148 22.3984C371.312 22.6875 371.594 22.9141 371.992 23.0781C372.391 23.2422 372.926 23.3555 373.598 23.418C374.277 23.4727 375.133 23.5 376.164 23.5C377.102 23.5 377.898 23.4805 378.555 23.4414C379.219 23.3945 379.773 23.3242 380.219 23.2305C380.664 23.1367 381.016 23.0234 381.273 22.8906C381.531 22.7578 381.727 22.5977 381.859 22.4102C381.992 22.2227 382.074 22.0156 382.105 21.7891C382.145 21.5547 382.164 21.2969 382.164 21.0156C382.164 20.7578 382.145 20.5312 382.105 20.3359C382.074 20.1328 381.996 19.9336 381.871 19.7383C381.746 19.5352 381.562 19.3828 381.32 19.2812C381.078 19.1797 380.746 19.0977 380.324 19.0352C379.91 18.9648 379.395 18.918 378.777 18.8945C378.16 18.8633 377.414 18.8477 376.539 18.8477ZM400.914 25V17.3828C400.914 16.5703 400.852 15.8867 400.727 15.332C400.602 14.7695 400.352 14.3164 399.977 13.9727C399.602 13.6289 399.07 13.3828 398.383 13.2344C397.695 13.0781 396.789 13 395.664 13C394.445 13 393.445 13.0898 392.664 13.2695C391.891 13.4414 391.281 13.6875 390.836 14.0078C390.391 14.3203 390.082 14.6992 389.91 15.1445C389.746 15.5898 389.664 16.0859 389.664 16.6328V25H387.414V7H389.664V13.6328C389.82 13.2656 390.043 12.9492 390.332 12.6836C390.621 12.418 390.953 12.1914 391.328 12.0039C391.711 11.8164 392.121 11.668 392.559 11.5586C392.996 11.4414 393.438 11.3516 393.883 11.2891C394.336 11.2266 394.777 11.1836 395.207 11.1602C395.645 11.1367 396.047 11.125 396.414 11.125C397.414 11.125 398.273 11.1875 398.992 11.3125C399.719 11.4297 400.332 11.6094 400.832 11.8516C401.34 12.0859 401.746 12.3789 402.051 12.7305C402.355 13.082 402.59 13.4922 402.754 13.9609C402.926 14.4219 403.039 14.9414 403.094 15.5195C403.148 16.0898 403.176 16.7109 403.176 17.3828L403.164 25H400.914Z" fill="#141E1F"/>
</svg>
